<?xml version="1.0" encoding="utf-8"?>
<!-- Generator: Adobe Illustrator 17.0.0, SVG Export Plug-In . SVG Version: 6.00 Build 0)  -->
<!DOCTYPE svg PUBLIC "-//W3C//DTD SVG 1.1//EN" "http://www.w3.org/Graphics/SVG/1.1/DTD/svg11.dtd">
<svg version="1.1" id="Layer_1" xmlns="http://www.w3.org/2000/svg" xmlns:xlink="http://www.w3.org/1999/xlink" x="0px" y="0px"
	 width="90px" height="90px" viewBox="0 0 90 90" enable-background="new 0 0 90 90" xml:space="preserve">
<g>
	<path fill="#004F9F" d="M44.586,60.216c1.25-2.155,1.116-4.562-0.323-6.405l5.538-9.549c2.116,0.004,4.164-1.13,5.203-2.921
		c1.419-2.447,1.054-5.041-0.978-6.938c-0.169-0.158-0.403-0.226-0.631-0.183c-0.227,0.043-0.421,0.191-0.521,0.4l-1.34,2.789
		c-0.685-0.029-1.311-0.392-1.677-0.972l1.78-2.554c0.137-0.196,0.168-0.447,0.084-0.671c-0.084-0.224-0.273-0.392-0.505-0.45
		c-2.504-0.622-4.908,0.447-6.27,2.794c-1.25,2.155-1.13,4.553,0.319,6.403l-5.517,9.512c-1.794,0.014-4.01,0.868-5.171,2.916
		c-1.408,2.427-1.065,5.024,0.913,6.944c0.168,0.163,0.404,0.236,0.634,0.195c0.23-0.041,0.427-0.19,0.529-0.4l1.341-2.788
		c0.685,0.029,1.311,0.392,1.677,0.972l-1.78,2.554c-0.137,0.196-0.168,0.447-0.084,0.671c0.084,0.224,0.273,0.392,0.505,0.45
		C40.804,63.603,43.206,62.545,44.586,60.216z M39.779,61.699L39.779,61.699l1.333-1.914c0.142-0.204,0.17-0.466,0.075-0.695
		l-0.013-0.032c-0.62-1.483-2.16-2.362-3.752-2.143c-0.24,0.034-0.447,0.186-0.552,0.405l-1.039,2.162
		c-0.861-1.306-0.869-2.851,0.011-4.369c0.943-1.664,2.865-2.292,4.255-2.171c0.28,0.024,0.549-0.117,0.689-0.362l5.996-10.337
		c0.162-0.276,0.124-0.625-0.094-0.859c-1.31-1.4-1.493-3.353-0.481-5.098c0.815-1.405,2.114-2.205,3.543-2.24l-1.333,1.914
		c-0.142,0.204-0.17,0.466-0.074,0.695l0.013,0.031c0.618,1.481,2.156,2.361,3.746,2.144c0.008-0.001,0.017-0.002,0.025-0.004
		c0.232-0.04,0.431-0.19,0.533-0.402l1.05-2.185c0.899,1.295,0.924,2.843,0.038,4.372c-0.826,1.425-2.592,2.322-4.294,2.182
		c-0.28-0.023-0.548,0.117-0.688,0.36l-6.016,10.373c-0.161,0.277-0.121,0.627,0.098,0.861c1.31,1.401,1.495,3.354,0.486,5.093
		C42.507,60.873,41.205,61.665,39.779,61.699z"/>
	<path fill="#004F9F" d="M64.965,10.833h-3.798v-3h-4v3h-2v-3h-4v3H24.581c-2.984,0-5.414,2.949-5.414,5.934v60.784
		c0,2.984,2.43,5.282,5.414,5.282h40.384c2.984,0,5.202-2.298,5.202-5.282V16.767C70.167,13.783,67.949,10.833,64.965,10.833z
		 M67.167,76.919c0,1.61-1.305,2.914-2.914,2.914H25.081c-1.61,0-2.914-1.305-2.914-2.914V16.748c0-1.61,1.305-2.914,2.914-2.914
		h39.171c1.61,0,2.914,1.305,2.914,2.914V76.919z"/>
	<circle fill="#004F9F" cx="26.566" cy="18.312" r="1.752"/>
	<circle fill="#004F9F" cx="62.37" cy="18.312" r="1.752"/>
	<circle fill="#004F9F" cx="26.566" cy="75.765" r="1.752"/>
	<circle fill="#004F9F" cx="62.37" cy="75.765" r="1.752"/>
	<path fill="#004F9F" d="M25.667,33.628c0.575,0,1.5-0.466,1.5-1.041v-7.91c0-0.575-0.925-1.041-1.5-1.041
		c-0.575,0-1.5,0.466-1.5,1.041v7.91C24.167,33.163,25.092,33.628,25.667,33.628z"/>
	<path fill="#004F9F" d="M24.167,57.984c0,0.575,0.925,1.041,1.5,1.041c0.575,0,1.5-0.466,1.5-1.041V38.416
		c0-0.575-0.925-1.041-1.5-1.041c-0.575,0-1.5,0.466-1.5,1.041V57.984z"/>
	<path fill="#004F9F" d="M24.167,69.225c0,0.575,0.925,1.041,1.5,1.041c0.575,0,1.5-0.466,1.5-1.041v-3.747
		c0-0.575-0.925-1.041-1.5-1.041c-0.575,0-1.5,0.466-1.5,1.041V69.225z"/>
	<path fill="#004F9F" d="M32.491,18.833h14.572c0.575,0,1.041-0.425,1.041-1c0-0.575-0.466-1-1.041-1H32.491
		c-0.575,0-1.041,0.425-1.041,1C31.45,18.408,31.916,18.833,32.491,18.833z"/>
	<path fill="#004F9F" d="M56.222,16.833h-3.747c-0.575,0-1.041,0.425-1.041,1c0,0.575,0.466,1,1.041,1h3.747
		c0.575,0,1.041-0.425,1.041-1C57.263,17.258,56.797,16.833,56.222,16.833z"/>
	<path fill="#004F9F" d="M56.222,73.833H41.65c-0.575,0-1.041,1.425-1.041,2c0,0.575,0.466,2,1.041,2h14.572
		c0.575,0,1.041-1.425,1.041-2C57.263,75.258,56.797,73.833,56.222,73.833z"/>
	<path fill="#004F9F" d="M36.238,73.833h-3.747c-0.575,0-1.041,1.425-1.041,2c0,0.575,0.466,2,1.041,2h3.747
		c0.575,0,1.041-1.425,1.041-2C37.279,75.258,36.813,73.833,36.238,73.833z"/>
	<path fill="#004F9F" d="M61.167,69.225c0,0.575,0.925,1.041,1.5,1.041c0.575,0,1.5-0.466,1.5-1.041v-7.91
		c0-0.575-0.925-1.041-1.5-1.041c-0.575,0-1.5,0.466-1.5,1.041V69.225z"/>
	<path fill="#004F9F" d="M61.167,55.486c0,0.575,0.925,1.041,1.5,1.041c0.575,0,1.5-0.466,1.5-1.041V35.918
		c0-0.575-0.925-1.041-1.5-1.041c-0.575,0-1.5,0.466-1.5,1.041V55.486z"/>
	<path fill="#004F9F" d="M62.667,29.465c0.575,0,1.5-0.466,1.5-1.041v-3.747c0-0.575-0.925-1.041-1.5-1.041
		c-0.575,0-1.5,0.466-1.5,1.041v3.747C61.167,28.999,62.092,29.465,62.667,29.465z"/>
</g>
</svg>
