<?xml version="1.0" encoding="utf-8"?>
<!-- Generator: Adobe Illustrator 17.0.0, SVG Export Plug-In . SVG Version: 6.00 Build 0)  -->
<!DOCTYPE svg PUBLIC "-//W3C//DTD SVG 1.1//EN" "http://www.w3.org/Graphics/SVG/1.1/DTD/svg11.dtd">
<svg version="1.1" id="Layer_1" xmlns="http://www.w3.org/2000/svg" xmlns:xlink="http://www.w3.org/1999/xlink" x="0px" y="0px"
	 width="90px" height="90px" viewBox="0 0 90 90" enable-background="new 0 0 90 90" xml:space="preserve">
<g>
	<path fill="#004F9F" d="M8.447,60.84c0-18.14,14.758-32.898,32.898-32.898h38.99c0.673,0,1.218,0.546,1.218,1.218
		c0,18.14-14.758,32.898-32.898,32.898H9.665C8.993,62.058,8.447,61.512,8.447,60.84z M41.345,30.379
		c-16.388,0-29.796,13.009-30.437,29.243h37.747c16.388,0,29.796-13.009,30.437-29.243H41.345z"/>
	<path fill="#004F9F" d="M40.126,45c0-0.673,0.546-1.218,1.218-1.218c0.673,0,1.218,0.546,1.218,1.218
		c0,2.015,1.64,3.655,3.655,3.655s3.655-1.64,3.655-3.655s-1.64-3.655-3.655-3.655c-0.673,0-1.218-0.546-1.218-1.218
		s0.546-1.218,1.218-1.218c3.359,0,6.092,2.733,6.092,6.092s-2.733,6.092-6.092,6.092S40.126,48.359,40.126,45z"/>
	<path fill="#004F9F" d="M34.034,45c0-6.719,5.466-12.184,12.184-12.184S58.403,38.281,58.403,45s-5.466,12.184-12.184,12.184
		S34.034,51.719,34.034,45z M36.471,45c0,5.375,4.373,9.748,9.748,9.748s9.748-4.373,9.748-9.748s-4.373-9.748-9.748-9.748
		S36.471,39.625,36.471,45z"/>
	<path fill="#004F9F" d="M62.058,38.908c0-3.359,2.733-6.092,6.092-6.092s6.092,2.733,6.092,6.092S71.51,45,68.15,45
		S62.058,42.267,62.058,38.908z M64.495,38.908c0,2.015,1.64,3.655,3.655,3.655c2.015,0,3.655-1.64,3.655-3.655
		c0-2.015-1.64-3.655-3.655-3.655C66.135,35.252,64.495,36.892,64.495,38.908z"/>
</g>
</svg>
