<?xml version="1.0" encoding="utf-8"?>
<!-- Generator: Adobe Illustrator 17.0.0, SVG Export Plug-In . SVG Version: 6.00 Build 0)  -->
<!DOCTYPE svg PUBLIC "-//W3C//DTD SVG 1.1//EN" "http://www.w3.org/Graphics/SVG/1.1/DTD/svg11.dtd">
<svg version="1.1" id="Layer_1" xmlns="http://www.w3.org/2000/svg" xmlns:xlink="http://www.w3.org/1999/xlink" x="0px" y="0px"
	 width="65px" height="40px" viewBox="0 0 65 40" enable-background="new 0 0 65 40" xml:space="preserve">
<g>
	<g>
		<g>
			<path fill="#FFFFFF" d="M32.5,6.719c-7.335,0-13.281,5.946-13.281,13.281c0,0.306,0.248,0.553,0.553,0.553
				s0.553-0.248,0.553-0.553c0-6.724,5.451-12.174,12.174-12.174c0.306,0,0.553-0.248,0.553-0.553S32.806,6.719,32.5,6.719z"/>
		</g>
	</g>
	<g>
		<g>
			<g>
				<path fill="#FFFFFF" d="M35.914,7.162l-0.553-0.138c-0.306-0.066-0.607,0.129-0.672,0.434c-0.066,0.306,0.129,0.607,0.434,0.672
					l0.515,0.127c0.048,0.006,0.096,0.006,0.144,0l-0.011,0.011c0.306,0.04,0.586-0.176,0.625-0.481
					C36.436,7.481,36.22,7.201,35.914,7.162z"/>
				<path fill="#FFFFFF" d="M38.36,9.259c-0.005,0-0.01-0.001-0.015-0.001c-0.004,0-0.008,0.001-0.013,0.001H38.36z"/>
				<path fill="#FFFFFF" d="M33.053,6.719H32.5c-0.306,0-0.553,0.248-0.553,0.553c0,0.306,0.248,0.553,0.553,0.553h0.553
					c0.306,0,0.553-0.248,0.553-0.553S33.359,6.719,33.053,6.719z"/>
				<path fill="#FFFFFF" d="M38.587,8.213l-0.493-0.282c-0.272-0.121-0.591-0.006-0.722,0.261c-0.135,0.274-0.022,0.606,0.252,0.741
					l0.481,0.266c0.074,0.038,0.156,0.058,0.24,0.06c0.203-0.004,0.389-0.118,0.482-0.3C38.967,8.686,38.859,8.352,38.587,8.213z"/>
				<path fill="#FFFFFF" d="M45.2,18.794c-0.306,0.015-0.541,0.275-0.526,0.581c0,0.199,0,0.376,0,0.553
					c0,0.306,0.248,0.553,0.553,0.553v-0.055c0.306,0,0.553-0.248,0.553-0.553c0-0.177,0-0.362,0-0.553
					C45.766,19.014,45.506,18.778,45.2,18.794z"/>
				<path fill="#FFFFFF" d="M45.017,17.692c0.298-0.066,0.486-0.361,0.421-0.659c-0.041-0.184-0.087-0.369-0.138-0.553
					c-0.081-0.295-0.386-0.468-0.681-0.387c-0.295,0.081-0.468,0.386-0.387,0.681c0.044,0.166,0.087,0.336,0.127,0.509
					c0.058,0.257,0.29,0.438,0.553,0.432L45.017,17.692z"/>
				<path fill="#FFFFFF" d="M44.247,15.082c0.276-0.131,0.393-0.462,0.262-0.738c-0.085-0.173-0.172-0.345-0.26-0.515
					c-0.004-0.008-0.008-0.015-0.012-0.023c-0.148-0.267-0.485-0.363-0.753-0.215c-0.267,0.148-0.363,0.485-0.215,0.753
					c0.085,0.155,0.164,0.312,0.238,0.47c0.092,0.194,0.289,0.317,0.504,0.315v0.006C44.092,15.136,44.173,15.117,44.247,15.082z"/>
				<path fill="#FFFFFF" d="M42.649,11.439c-0.197-0.234-0.546-0.264-0.78-0.066c-0.234,0.197-0.264,0.546-0.066,0.78
					c0.114,0.133,0.225,0.269,0.332,0.41c0.104,0.136,0.266,0.215,0.437,0.216h0.006c0.122,0,0.24-0.041,0.336-0.115
					c0.242-0.186,0.287-0.534,0.101-0.776C42.892,11.738,42.771,11.589,42.649,11.439z"/>
				<path fill="#FFFFFF" d="M41.017,9.812l-0.454-0.36c-0.243-0.186-0.591-0.141-0.777,0.102s-0.141,0.591,0.102,0.777l0.415,0.332
					c0.1,0.082,0.225,0.128,0.354,0.127h0.006c0.165,0,0.322-0.073,0.427-0.2C41.285,10.356,41.252,10.007,41.017,9.812z"/>
			</g>
		</g>
	</g>
	<g>
		<g>
			<path fill="#FFFFFF" d="M32.5,10.039c-5.501,0-9.961,4.46-9.961,9.961s4.46,9.961,9.961,9.961s9.961-4.46,9.961-9.961
				S38.001,10.039,32.5,10.039z M32.5,28.854c-4.89,0-8.854-3.964-8.854-8.854s3.964-8.854,8.854-8.854S41.354,15.11,41.354,20
				S37.39,28.854,32.5,28.854z"/>
		</g>
	</g>
	<g>
		<g>
			<path fill="#FFFFFF" d="M32.5,15.573c-2.445,0-4.427,1.982-4.427,4.427s1.982,4.427,4.427,4.427s4.427-1.982,4.427-4.427
				S34.945,15.573,32.5,15.573z M32.5,23.32c-1.834,0-3.32-1.487-3.32-3.32s1.487-3.32,3.32-3.32s3.32,1.487,3.32,3.32
				C35.82,21.834,34.334,23.32,32.5,23.32z"/>
		</g>
	</g>
	<g>
		<g>
			<path fill="#FFFFFF" d="M32.5,13.359c-0.306,0-0.553,0.248-0.553,0.553v2.214c0,0.306,0.248,0.553,0.553,0.553
				c0.306,0,0.553-0.248,0.553-0.553v-2.214C33.053,13.607,32.806,13.359,32.5,13.359z"/>
		</g>
	</g>
	<g>
		<g>
			<path fill="#FFFFFF" d="M46.334,3.399H18.665c-1.528,0-2.767,1.239-2.767,2.767v27.669c0,1.528,1.239,2.767,2.767,2.767h27.669
				c1.528,0,2.767-1.239,2.767-2.767V6.165C49.101,4.637,47.863,3.399,46.334,3.399z M47.995,33.834c0,0.917-0.743,1.66-1.66,1.66
				H18.665c-0.917,0-1.66-0.743-1.66-1.66V6.165c0-0.917,0.743-1.66,1.66-1.66h27.669c0.917,0,1.66,0.743,1.66,1.66L47.995,33.834
				L47.995,33.834z"/>
		</g>
	</g>
	<g>
		<g>
			<path fill="#FFFFFF" d="M44.674,29.961c-1.222,0-2.214,0.991-2.214,2.214c0,1.222,0.991,2.214,2.214,2.214
				c1.222,0,2.214-0.991,2.214-2.214C46.888,30.952,45.897,29.961,44.674,29.961z M44.674,33.281c-0.611,0-1.107-0.496-1.107-1.107
				c0-0.611,0.496-1.107,1.107-1.107s1.107,0.496,1.107,1.107C45.781,32.786,45.286,33.281,44.674,33.281z"/>
		</g>
	</g>
	<g>
		<g>
			<path fill="#FFFFFF" d="M19.612,33.431l-0.089-0.066c-0.028-0.022-0.06-0.039-0.094-0.05c-0.033-0.017-0.069-0.028-0.105-0.033
				c-0.071-0.017-0.145-0.017-0.216,0c-0.035,0.009-0.069,0.024-0.1,0.044c-0.035,0.012-0.069,0.029-0.1,0.05l-0.083,0.066
				c-0.104,0.104-0.161,0.246-0.161,0.393c-0.001,0.076,0.014,0.151,0.044,0.221c0.028,0.067,0.067,0.129,0.116,0.183l0.083,0.066
				c0.031,0.021,0.064,0.038,0.1,0.05l0.1,0.033h0.111l0.105-0.011c0.037-0.005,0.072-0.017,0.105-0.033
				c0.034-0.011,0.066-0.028,0.094-0.05l0.089-0.066c0.049-0.054,0.088-0.116,0.116-0.183c0.028-0.067,0.043-0.138,0.044-0.21
				C19.773,33.684,19.715,33.539,19.612,33.431z"/>
		</g>
	</g>
	<g>
		<g>
			<path fill="#FFFFFF" d="M28.073,33.281h-7.194c-0.306,0-0.553,0.248-0.553,0.553s0.248,0.553,0.553,0.553h7.194
				c0.306,0,0.553-0.248,0.553-0.553S28.379,33.281,28.073,33.281z"/>
		</g>
	</g>
</g>
</svg>
