<?xml version="1.0" encoding="utf-8"?>
<!-- Generator: Adobe Illustrator 17.0.0, SVG Export Plug-In . SVG Version: 6.00 Build 0)  -->
<!DOCTYPE svg PUBLIC "-//W3C//DTD SVG 1.1//EN" "http://www.w3.org/Graphics/SVG/1.1/DTD/svg11.dtd">
<svg version="1.1" id="Layer_1" xmlns="http://www.w3.org/2000/svg" xmlns:xlink="http://www.w3.org/1999/xlink" x="0px" y="0px"
	 width="80px" height="80px" viewBox="0 0 80 80" enable-background="new 0 0 80 80" xml:space="preserve">
<g>
	<g>
		<g>
			<path fill="#FFFFFF" d="M58.502,63.434H21.497c-0.503,0-0.911,0.408-0.911,0.911s0.408,0.911,0.911,0.911h37.005
				c0.503,0,0.911-0.408,0.911-0.911C59.413,63.842,59.006,63.434,58.502,63.434z"/>
		</g>
	</g>
	<g>
		<g>
			<path fill="#FFFFFF" d="M64.345,69.277h-1.036V11.76c0-1.576-1.282-2.859-2.859-2.859h-40.9c-1.576,0-2.859,1.282-2.859,2.859
				v57.517h-1.036c-0.503,0-0.911,0.408-0.911,0.911c0,0.503,0.408,0.911,0.911,0.911h48.69c0.503,0,0.911-0.408,0.911-0.911
				C65.256,69.685,64.848,69.277,64.345,69.277z M61.486,69.277H18.513v-7.916h4.932c0.503,0,0.911-0.408,0.911-0.911
				s-0.408-0.911-0.911-0.911h-1.037V47.728h7.916v3.56c0,0.816,0.439,1.577,1.145,1.986l7.38,4.273
				c0.355,0.205,0.752,0.308,1.15,0.308s0.795-0.103,1.15-0.308l7.38-4.273c0.706-0.409,1.145-1.17,1.145-1.986v-3.56h7.916v11.811
				h-30.25c-0.503,0-0.911,0.408-0.911,0.911s0.408,0.911,0.911,0.911h34.146V69.277z M57.591,16.691H22.409v-2.073h35.183
				L57.591,16.691L57.591,16.691z M38.963,20.586v-2.073h2.073v2.073C41.036,20.586,38.963,20.586,38.963,20.586z M41.036,22.409
				v1.795L40,26.277l-1.036-2.073v-1.795C38.963,22.409,41.036,22.409,41.036,22.409z M40,43.832c0.503,0,0.911-0.408,0.911-0.911
				v-4.478l6.035,3.494l-6.709,3.884c-0.146,0.085-0.328,0.085-0.474,0l-6.709-3.884l6.035-3.494v4.478
				C39.089,43.425,39.497,43.832,40,43.832z M43.439,50.056l3.506,2.03l-6.034,3.493v-8.062c0.081-0.035,0.161-0.074,0.239-0.119
				l6.703-3.881v6.989l-3.501-2.027c-0.435-0.252-0.993-0.104-1.245,0.332S43.003,49.804,43.439,50.056z M38.85,47.399
				c0.078,0.045,0.157,0.084,0.239,0.119v8.062l-6.034-3.493l3.506-2.03c0.436-0.252,0.584-0.81,0.332-1.245
				c-0.252-0.436-0.81-0.584-1.245-0.332l-3.501,2.027v-6.989L38.85,47.399z M61.486,59.539h-2.073V23.445
				c0-0.503-0.408-0.911-0.911-0.911c-0.503,0-0.911,0.408-0.911,0.911v22.46h-7.916v-3.17c0-0.816-0.439-1.577-1.145-1.986
				l-7.38-4.273c-0.709-0.411-1.59-0.411-2.3,0l-7.381,4.273c-0.706,0.409-1.145,1.17-1.145,1.986v3.17h-7.916V18.514h14.732v5.906
				c0,0.142,0.033,0.281,0.096,0.407l1.851,3.703v4.654c0,0.503,0.408,0.911,0.911,0.911c0.503,0,0.911-0.408,0.911-0.911v-4.654
				l1.851-3.703c0.063-0.127,0.096-0.266,0.096-0.407v-5.906h14.732v1.036c0,0.503,0.408,0.911,0.911,0.911s0.911-0.408,0.911-0.911
				v-5.842c0-0.503-0.408-0.911-0.911-0.911H21.497c-0.503,0-0.911,0.408-0.911,0.911v45.832h-2.073V11.76
				c0-0.571,0.465-1.036,1.036-1.036h40.9c0.572,0,1.036,0.465,1.036,1.036V59.539z"/>
		</g>
	</g>
</g>
</svg>
