<?xml version="1.0" encoding="utf-8"?>
<!-- Generator: Adobe Illustrator 17.0.0, SVG Export Plug-In . SVG Version: 6.00 Build 0)  -->
<!DOCTYPE svg PUBLIC "-//W3C//DTD SVG 1.1//EN" "http://www.w3.org/Graphics/SVG/1.1/DTD/svg11.dtd">
<svg version="1.1" id="Layer_1" xmlns="http://www.w3.org/2000/svg" xmlns:xlink="http://www.w3.org/1999/xlink" x="0px" y="0px"
	 width="90px" height="90px" viewBox="0 0 90 90" enable-background="new 0 0 90 90" xml:space="preserve">
<g>
	<g>
		<g>
			<path fill="#004F9F" d="M81.429,24.919c-0.013-0.062-0.025-0.124-0.038-0.181c-1.184-5.634-5.59-10.041-11.232-11.227
				l-0.063-0.013c-0.04-0.008-0.079-0.016-0.118-0.024c-3.419-0.685-6.764,1.563-7.458,5.011
				c-1.246,6.186-4.332,11.379-8.502,14.348c-0.476-0.459-0.953-0.915-1.431-1.37c-1.546-1.468-3.891-1.632-5.593-0.476
				c-2.616-2.381-6.673-2.272-9.112,0.27c-1.221,1.272-2.26,2.759-3.09,4.42c-0.129,0.257-0.084,0.568,0.112,0.778
				c0.209,0.225,0.419,0.449,0.628,0.674c-0.243,0.329-0.478,0.671-0.698,1.024c-0.625,1.003-0.494,2.31,0.319,3.176
				c5.87,6.267,12.023,12.42,18.289,18.289c0.501,0.469,1.148,0.711,1.8,0.711c0.476,0,0.953-0.129,1.377-0.393
				c0.352-0.22,0.694-0.454,1.024-0.697c0.224,0.21,0.449,0.419,0.673,0.628c0.131,0.121,0.299,0.185,0.47,0.185
				c0.105,0,0.21-0.024,0.308-0.073c1.66-0.83,3.147-1.87,4.42-3.09c2.542-2.438,2.65-6.496,0.269-9.111
				c1.157-1.702,0.993-4.047-0.475-5.593c-0.411-0.433-0.824-0.864-1.239-1.296c2.737-3.84,7.452-6.817,13.033-8.208
				c0.37-0.092,0.595-0.467,0.503-0.836c-0.092-0.37-0.466-0.595-0.837-0.503c-5.797,1.444-10.728,4.535-13.673,8.541
				c-1.991-2.051-4.02-4.081-6.07-6.075c4.349-3.193,7.555-8.624,8.85-15.049c0.544-2.704,3.163-4.468,5.837-3.93
				c0.003,0.001,0.006,0.001,0.009,0.002c0.032,0.006,0.065,0.013,0.097,0.02l0.065,0.013c5.099,1.073,9.087,5.06,10.159,10.164
				c0.012,0.056,0.023,0.111,0.035,0.166c0.449,2.235-0.693,4.479-2.777,5.458c-0.345,0.162-0.493,0.573-0.331,0.918
				c0.162,0.345,0.573,0.493,0.918,0.331C80.547,30.65,82.004,27.78,81.429,24.919L81.429,24.919z M62.558,55.893
				c-1.064,1.02-2.293,1.905-3.659,2.633c-6.043-5.632-12.006-11.502-17.727-17.451c-0.264-0.275-0.701-0.283-0.976-0.019
				c-0.275,0.264-0.283,0.701-0.019,0.976c5.315,5.527,10.837,10.984,16.439,16.247c-0.237,0.168-0.48,0.331-0.729,0.486
				c-0.474,0.295-1.092,0.232-1.503-0.154c-6.244-5.848-12.375-11.98-18.225-18.225c-0.386-0.411-0.449-1.029-0.154-1.503
				c0.155-0.249,0.318-0.492,0.486-0.729c0.597,0.635,1.191,1.263,1.777,1.879c0.263,0.276,0.7,0.287,0.976,0.024
				c0.276-0.263,0.287-0.7,0.024-0.976c-0.994-1.043-2.009-2.121-3.023-3.21c0.729-1.366,1.613-2.595,2.633-3.659
				c1.947-2.03,5.208-2.088,7.27-0.129c5.622,5.341,11.186,10.905,16.538,16.539C64.645,50.685,64.588,53.946,62.558,55.893
				L62.558,55.893z M62.307,43.135c0.943,0.994,1.111,2.461,0.493,3.606c-4.798-5.022-9.757-9.981-14.769-14.77
				c1.145-0.618,2.612-0.45,3.605,0.494C55.267,35.915,58.857,39.505,62.307,43.135z"/>
		</g>
	</g>
	<g>
		<g>
			<g>
				<path fill="#004F9F" d="M39.765,56.662c-0.072-0.112-0.158-0.247-0.196-0.317c-0.003-0.084,0.005-0.257,0.012-0.4
					c0.059-1.218,0.198-4.069-2.646-5.705l-1.35-0.777c-0.042-0.074-0.104-0.192-0.156-0.293c-0.57-1.097-1.903-3.666-5.159-3.666
					l-1.518,0.002l-1.313-0.761c-2.843-1.659-5.294-0.088-6.341,0.583c-0.112,0.072-0.247,0.158-0.316,0.196
					c-0.084,0.003-0.257-0.005-0.4-0.012c-1.218-0.059-4.069-0.198-5.705,2.646l-0.777,1.35c-0.074,0.042-0.193,0.104-0.293,0.156
					c-1.097,0.57-3.666,1.903-3.666,5.159l0.002,1.518l-0.76,1.312c-1.66,2.843-0.089,5.295,0.582,6.342
					c0.072,0.112,0.158,0.247,0.196,0.316c0.003,0.084-0.006,0.258-0.012,0.401c-0.059,1.217-0.199,4.068,2.646,5.704l1.35,0.777
					c0.042,0.074,0.104,0.192,0.156,0.293c0.57,1.097,1.903,3.666,5.159,3.666l1.518-0.002l1.312,0.76
					c0.921,0.538,1.801,0.737,2.606,0.737c1.679,0,3.028-0.865,3.736-1.319c0.112-0.072,0.247-0.158,0.317-0.196
					c0.084-0.003,0.257,0.005,0.4,0.012c1.218,0.059,4.069,0.199,5.705-2.646l0.777-1.35c0.074-0.043,0.193-0.104,0.293-0.156
					c1.097-0.57,3.666-1.903,3.666-5.159l-0.002-1.518l0.76-1.312C42.008,60.161,40.436,57.709,39.765,56.662L39.765,56.662z
					 M39.246,62.363l-0.847,1.462c-0.056,0.097-0.086,0.208-0.086,0.321l0.003,1.689c0,2.481-1.937,3.487-2.978,4.027
					c-0.312,0.162-0.5,0.26-0.64,0.399c-0.04,0.04-0.074,0.084-0.102,0.133l-0.846,1.47c-1.247,2.169-3.388,2.065-4.538,2.009
					c-0.357-0.017-0.593-0.029-0.796,0.026c-0.192,0.052-0.383,0.173-0.67,0.358c-0.993,0.637-2.842,1.821-5.013,0.554l-1.462-0.847
					c-0.097-0.056-0.207-0.086-0.32-0.086h-0.001L19.26,73.88c-2.481,0-3.487-1.937-4.027-2.978c-0.162-0.312-0.26-0.5-0.399-0.64
					c-0.04-0.04-0.084-0.074-0.133-0.102l-1.47-0.846c-2.169-1.248-2.065-3.387-2.009-4.537c0.017-0.357,0.029-0.593-0.026-0.798
					c-0.052-0.192-0.167-0.372-0.358-0.67c-0.637-0.993-1.822-2.842-0.554-5.013l0.847-1.462c0.056-0.097,0.086-0.208,0.086-0.321
					l-0.003-1.689c0-2.481,1.937-3.487,2.978-4.027c0.312-0.162,0.5-0.26,0.64-0.399c0.04-0.04,0.074-0.084,0.102-0.133l0.846-1.47
					c1.247-2.169,3.388-2.065,4.538-2.009c0.357,0.017,0.593,0.029,0.797-0.026c0.192-0.052,0.372-0.167,0.67-0.358
					c0.993-0.637,2.842-1.821,5.011-0.555l0.002,0.001l1.462,0.847c0.097,0.056,0.207,0.086,0.32,0.086h0.001l1.689-0.003
					c2.481,0,3.487,1.937,4.027,2.978c0.162,0.312,0.26,0.5,0.399,0.64c0.04,0.04,0.084,0.074,0.133,0.102l1.47,0.846
					c2.169,1.247,2.065,3.388,2.009,4.538c-0.017,0.357-0.029,0.593,0.026,0.797c0.052,0.192,0.173,0.383,0.358,0.67
					C39.329,58.343,40.514,60.192,39.246,62.363L39.246,62.363z"/>
				<path fill="#004F9F" d="M24.765,48.221c-2.175,0-4.31,0.584-6.172,1.69c-0.303,0.18-0.402,0.571-0.223,0.873
					c0.18,0.303,0.571,0.402,0.873,0.223c1.666-0.989,3.575-1.511,5.522-1.511c5.974,0,10.834,4.86,10.834,10.834
					s-4.86,10.834-10.834,10.834s-10.834-4.86-10.834-10.834c0-1.947,0.523-3.856,1.511-5.521c0.18-0.303,0.08-0.694-0.223-0.873
					c-0.303-0.18-0.694-0.08-0.873,0.223c-1.105,1.862-1.69,3.996-1.69,6.172c0,6.677,5.432,12.109,12.109,12.109
					s12.109-5.432,12.109-12.109S31.442,48.221,24.765,48.221L24.765,48.221z"/>
				<path fill="#004F9F" d="M24.765,69.571c5.096,0,9.241-4.146,9.241-9.241s-4.146-9.241-9.241-9.241s-9.241,4.146-9.241,9.241
					S19.67,69.571,24.765,69.571z M24.765,52.363c4.393,0,7.966,3.574,7.966,7.966s-3.574,7.966-7.966,7.966
					s-7.966-3.574-7.966-7.966S20.373,52.363,24.765,52.363z"/>
				<path fill="#004F9F" d="M20.304,63.198h8.922c0.352,0,0.637-0.285,0.637-0.637v-4.461c0-0.236-0.13-0.452-0.338-0.563
					c-0.208-0.111-0.46-0.097-0.656,0.034l-1.874,1.265l-1.874-1.265c-0.215-0.145-0.498-0.145-0.713,0l-1.874,1.265l-1.874-1.265
					c-0.195-0.132-0.447-0.145-0.656-0.034c-0.208,0.111-0.338,0.327-0.338,0.563v4.461C19.667,62.912,19.952,63.198,20.304,63.198
					L20.304,63.198z M20.941,59.298l1.237,0.835c0.215,0.145,0.498,0.145,0.713,0l1.874-1.265l1.874,1.265
					c0.215,0.145,0.498,0.145,0.713,0l1.237-0.835v2.625h-7.648V59.298z"/>
				<path fill="#004F9F" d="M16.653,52.855c0.173,0,0.346-0.07,0.472-0.209c0.237-0.26,0.218-0.664-0.043-0.9
					c-0.26-0.237-0.663-0.218-0.9,0.043l0,0c-0.237,0.26-0.217,0.663,0.043,0.9C16.347,52.801,16.5,52.855,16.653,52.855
					L16.653,52.855z"/>
			</g>
		</g>
	</g>
</g>
</svg>
