<?xml version="1.0" encoding="utf-8"?>
<!-- Generator: Adobe Illustrator 17.0.0, SVG Export Plug-In . SVG Version: 6.00 Build 0)  -->
<!DOCTYPE svg PUBLIC "-//W3C//DTD SVG 1.1//EN" "http://www.w3.org/Graphics/SVG/1.1/DTD/svg11.dtd">
<svg version="1.1" id="Layer_1" xmlns="http://www.w3.org/2000/svg" xmlns:xlink="http://www.w3.org/1999/xlink" x="0px" y="0px"
	 width="65px" height="40px" viewBox="0 0 65 40" enable-background="new 0 0 65 40" xml:space="preserve">
<g>
	<path fill="#FFFFFF" d="M29.463,36.912c-4.996,0-8.996-1.652-11.892-4.909c-4.67-5.253-4.877-12.931-4.725-14.225l0.083-0.695
		l0.642,0.28c0.028,0.012,2.754,1.184,6.21,1.184c1.906,0,3.683-0.352,5.279-1.047c1.028-0.447,3.801-0.953,5.049-1.166
		c-0.427-1.251-1.295-4.158-0.833-5.981c0.648-2.56,1.694-3.669,2.631-4.417c1.202-0.958,3.612-1.976,5.714-1.976
		c0.603,0,1.158,0.084,1.648,0.25c3.738,1.262,5.42,4.463,5.877,5.497c0.679,0.04,2.281,0.128,3.381,0.128
		c0.523,0,0.77-0.02,0.887-0.036c0.759-0.113,1.538,0.31,1.835,0.974c0.18,0.402,0.341,1.234-0.599,2.286
		c-2.089,2.337-4.91,2.884-5.907,3.007c-0.11,0.284-0.307,0.689-0.635,1.058c-0.274,0.309-0.544,0.595-0.759,0.818
		c2.029,1.511,3.183,4.821,2.785,8.205c-0.266,2.267-1.678,7.747-9.005,9.675C34.375,36.544,31.796,36.912,29.463,36.912z
		 M13.853,18.581c0.011,2.226,0.668,8.427,4.495,12.731c3.978,4.475,10.279,5.67,18.516,3.502c6.709-1.765,7.995-6.736,8.237-8.792
		c0.38-3.231-0.832-6.47-2.82-7.534l-0.625-0.335l0.507-0.495c0.006-0.005,0.584-0.571,1.167-1.227
		c0.39-0.438,0.516-0.962,0.518-0.967l0.087-0.383l0.393-0.021c0.033-0.002,3.318-0.204,5.546-2.697
		c0.402-0.449,0.557-0.876,0.426-1.169c-0.111-0.247-0.434-0.409-0.74-0.37c-0.221,0.032-0.559,0.047-1.034,0.047
		c-1.456,0-3.677-0.144-3.771-0.151l-0.337-0.022l-0.117-0.318c-0.015-0.038-1.46-3.869-5.365-5.189
		c-0.384-0.129-0.827-0.195-1.317-0.195c-1.981,0-4.155,1.023-5.066,1.749c-0.802,0.64-1.699,1.599-2.272,3.859
		c-0.507,2,0.996,5.909,1.011,5.948l0.233,0.6l-0.635,0.101c-1.17,0.186-4.425,0.763-5.417,1.195
		c-1.728,0.753-3.644,1.134-5.693,1.134C17.131,19.586,14.926,18.955,13.853,18.581z"/>
	<path fill="#FFFFFF" d="M38.455,11.847c-1.016,0-1.842-0.827-1.842-1.843c0-1.016,0.826-1.842,1.842-1.842s1.842,0.827,1.842,1.842
		C40.297,11.02,39.471,11.847,38.455,11.847z M38.455,8.886c-0.616,0-1.117,0.501-1.117,1.117c0,0.616,0.502,1.118,1.117,1.118
		s1.117-0.502,1.117-1.118C39.572,9.388,39.07,8.886,38.455,8.886z"/>
	<path fill="#FFFFFF" d="M30.872,29.62c-8.457,0-10.213-6.547-10.23-6.613l-0.124-0.488l0.787,0.003c1.16,0,5.076-0.022,6.731-0.309
		c1.459-0.253,2.931-0.098,4.374-0.098c1.237,0,1.981,0.384,2.012,0.384c0.002,0,0.004,0,0.006,0c1.596,0,2.574,1.3,2.687,2.865
		c0.137,1.882-0.882,3.808-3.467,4.186C32.684,29.691,31.751,29.62,30.872,29.62z M21.559,23.302
		c0.556,1.441,2.716,5.539,9.313,5.539c0.842,0,1.737-0.069,2.662-0.204c2.233-0.326,2.906-2.089,2.804-3.5
		c-0.088-1.207-0.791-2.429-1.967-2.429c-0.058-0.004-0.78-0.098-1.961-0.098c-1.399,0-2.826,0.125-4.242,0.37
		C26.561,23.26,22.973,23.298,21.559,23.302z"/>
	<path fill="#FFFFFF" d="M44.055,15.829c-2.347-2.826,0.421-5.86,0.449-5.89l0.57,0.53c-0.096,0.104-2.327,2.566-0.421,4.862
		L44.055,15.829z"/>
</g>
</svg>
