<?xml version="1.0" encoding="utf-8"?>
<!-- Generator: Adobe Illustrator 17.0.0, SVG Export Plug-In . SVG Version: 6.00 Build 0)  -->
<!DOCTYPE svg PUBLIC "-//W3C//DTD SVG 1.1//EN" "http://www.w3.org/Graphics/SVG/1.1/DTD/svg11.dtd">
<svg version="1.1" id="Layer_1" xmlns="http://www.w3.org/2000/svg" xmlns:xlink="http://www.w3.org/1999/xlink" x="0px" y="0px"
	 width="65px" height="40px" viewBox="0 0 65 40" enable-background="new 0 0 65 40" xml:space="preserve">
<g>
	<g>
		<g>
			<path fill="#FFFFFF" d="M37.421,1.545c-0.34,0-0.615,0.276-0.615,0.615s0.276,0.615,0.615,0.615
				c6.784,0,12.303,5.519,12.303,12.303c0,0.34,0.276,0.615,0.615,0.615c0.34,0,0.615-0.276,0.615-0.615
				C50.954,7.616,44.883,1.545,37.421,1.545z"/>
		</g>
	</g>
	<g>
		<g>
			<path fill="#FFFFFF" d="M37.421,5.236c-0.34,0-0.615,0.276-0.615,0.615s0.276,0.615,0.615,0.615c4.749,0,8.612,3.863,8.612,8.612
				c0,0.34,0.276,0.615,0.615,0.615c0.34,0,0.615-0.276,0.615-0.615C47.263,9.652,42.848,5.236,37.421,5.236z"/>
		</g>
	</g>
	<g>
		<g>
			<path fill="#FFFFFF" d="M37.421,8.927c-0.34,0-0.615,0.276-0.615,0.615s0.276,0.615,0.615,0.615c2.713,0,4.921,2.208,4.921,4.921
				c0,0.34,0.276,0.615,0.615,0.615c0.34,0,0.615-0.276,0.615-0.615C43.572,11.687,40.813,8.927,37.421,8.927z"/>
		</g>
	</g>
	<g>
		<g>
			<path fill="#FFFFFF" d="M47.333,24.629c-1.674-0.22-3.324-0.631-4.905-1.22c-1.531-0.574-3.271-0.204-4.436,0.946l-1.945,1.94
				c-4.077-2.404-7.483-5.803-9.893-9.873l1.946-1.941c1.15-1.161,1.522-2.899,0.947-4.426c-0.59-1.578-1.001-3.225-1.223-4.902
				c-0.295-2.078-2.094-3.617-4.197-3.609h-5.382c-0.126,0-0.251,0.006-0.375,0.017c-1.118,0.101-2.13,0.631-2.849,1.491
				c-0.719,0.861-1.06,1.949-0.958,3.076c0.596,5.603,2.534,11.064,5.6,15.788c2.784,4.373,6.572,8.153,10.948,10.928
				c4.716,3.052,10.162,4.986,15.761,5.593c0.127,0.011,0.254,0.017,0.382,0.017c0.004,0,0.007,0,0.012,0
				c2.318-0.01,4.195-1.9,4.186-4.211V28.88C51.002,26.754,49.449,24.927,47.333,24.629z M49.723,28.858c0,0.005,0,0.01,0,0.015
				v5.373c0.006,1.635-1.322,2.971-2.96,2.978c-0.096-0.004-0.188-0.004-0.269-0.011c-5.397-0.586-10.658-2.453-15.218-5.405
				c-4.23-2.683-7.886-6.332-10.577-10.558c-2.964-4.567-4.836-9.841-5.411-15.243c-0.071-0.789,0.169-1.558,0.678-2.166
				s1.224-0.983,2.015-1.054c0.088-0.008,0.176-0.012,0.264-0.012h5.388c0.01,0,0.02,0,0.03,0c1.474,0,2.737,1.092,2.943,2.545
				c0.233,1.762,0.667,3.501,1.29,5.167c0.407,1.08,0.144,2.308-0.666,3.126l-2.278,2.274c-0.197,0.196-0.237,0.499-0.1,0.74
				c2.607,4.577,6.409,8.371,10.994,10.972c0.241,0.137,0.543,0.095,0.738-0.1l2.276-2.271c0.822-0.811,2.055-1.073,3.139-0.667
				c1.668,0.621,3.41,1.055,5.17,1.286C48.661,26.059,49.761,27.352,49.723,28.858z"/>
		</g>
	</g>
</g>
</svg>
