<?xml version="1.0" encoding="utf-8"?>
<!-- Generator: Adobe Illustrator 17.0.0, SVG Export Plug-In . SVG Version: 6.00 Build 0)  -->
<!DOCTYPE svg PUBLIC "-//W3C//DTD SVG 1.1//EN" "http://www.w3.org/Graphics/SVG/1.1/DTD/svg11.dtd">
<svg version="1.1" id="Layer_1" xmlns="http://www.w3.org/2000/svg" xmlns:xlink="http://www.w3.org/1999/xlink" x="0px" y="0px"
	 width="90px" height="90px" viewBox="0 0 90 90" enable-background="new 0 0 90 90" xml:space="preserve">
<g>
	<g>
		<path fill="#004F9F" d="M78.489,13.371H11.511c-2.739,0.004-4.958,2.223-4.961,4.961v42.172c0.004,2.739,2.223,4.958,4.961,4.961
			h25.567l-1.654,4.961h-4.067c-0.685,0-1.24,0.555-1.24,1.24v2.481H18.953c-0.685,0-1.24,0.555-1.24,1.24
			c0,0.685,0.555,1.24,1.24,1.24h54.575c0.685,0,1.24-0.555,1.24-1.24c0-0.685-0.555-1.24-1.24-1.24H59.884v-2.481
			c0-0.685-0.555-1.24-1.24-1.24h-4.067l-1.654-4.961h25.567c2.739-0.004,4.958-2.223,4.961-4.961V18.333
			C83.447,15.594,81.228,13.375,78.489,13.371z M57.403,72.908v1.24H32.597v-1.24H57.403z M38.039,70.427l1.654-4.961h10.614
			l1.654,4.961H38.039z M80.97,60.504c-0.002,1.369-1.111,2.479-2.481,2.481H11.511c-1.369-0.002-2.479-1.111-2.481-2.481v-2.481
			h71.94V60.504z M68.775,55.543H9.03v-37.21c0.002-1.369,1.111-2.479,2.481-2.481h66.979c1.369,0.002,2.479,1.111,2.481,2.481
			v37.21H68.556c0.007-0.051,0.01-0.103,0.011-0.155L68.775,55.543z M20.193,59.264h-7.442c-0.685,0-1.24,0.555-1.24,1.24
			c0,0.685,0.555,1.24,1.24,1.24h7.442c0.685,0,1.24-0.555,1.24-1.24C21.433,59.819,20.878,59.264,20.193,59.264z M25.154,59.264
			h-1.24c-0.685,0-1.24,0.555-1.24,1.24c0,0.685,0.555,1.24,1.24,1.24h1.24c0.685,0,1.24-0.555,1.24-1.24
			C26.395,59.819,25.84,59.264,25.154,59.264z M12.751,20.813h9.923c0.685,0,1.24-0.555,1.24-1.24s-0.555-1.24-1.24-1.24h-9.923
			c-0.685,0-1.24,0.555-1.24,1.24S12.066,20.813,12.751,20.813z M12.751,24.534h2.481c0.685,0,1.24-0.555,1.24-1.24
			c0-0.685-0.555-1.24-1.24-1.24h-2.481c-0.685,0-1.24,0.555-1.24,1.24C11.511,23.979,12.066,24.534,12.751,24.534z M72.288,53.062
			h4.961c0.685,0,1.24-0.555,1.24-1.24c0-0.685-0.555-1.24-1.24-1.24h-4.961c-0.685,0-1.24,0.555-1.24,1.24
			C71.047,52.507,71.603,53.062,72.288,53.062z M76.009,49.341h1.24c0.685,0,1.24-0.555,1.24-1.24s-0.555-1.24-1.24-1.24h-1.24
			c-0.685,0-1.24,0.555-1.24,1.24S75.324,49.341,76.009,49.341z"/>
		<path fill="#004F9F" d="M45.273,50.756c-0.195,0-0.386-0.051-0.553-0.147l-11.062-6.442c-0.198-0.139-0.158-0.259-0.158-0.653
			V29.477c0-0.583-0.141-0.643,0.3-0.885l10.958-6.356c0.168-0.096,0.34-0.147,0.534-0.147c0.193,0,0.375,0.051,0.543,0.147
			l11.275,6.61c0.351,0.203,0.391,0.569,0.391,0.962v13.23c0,0.393-0.044,0.76-0.385,0.957l-11.374,6.614
			C45.574,50.705,45.467,50.756,45.273,50.756z M46.5,37.06v10.678l9-5.338V31.721L46.5,37.06z M35.5,42.4l9,5.338V37.06l-9-5.339
			V42.4z M36.026,29.808l9.247,5.339l9.247-5.339l-9.247-5.339L36.026,29.808z"/>
		<path fill="#004F9F" d="M27.925,53.673c-0.174,0-0.331-0.097-0.41-0.252c-0.055-0.109-0.065-0.234-0.026-0.35
			c0.038-0.116,0.12-0.211,0.229-0.266l0.595-0.3l-0.233-0.138c-1.822-1.079-2.965-1.701-3.634-2.097
			c-0.755-0.446-1.029-0.566-1.034-0.854c0-0.024,0.088-0.323,0.088-5.336v-0.275l-0.664,0.367
			c-0.075,0.049-0.213,0.075-0.302,0.075c-0.156,0-0.325-0.077-0.41-0.207c-0.139-0.211-0.092-0.496,0.12-0.635l1.264-0.831
			c0.075-0.049,0.158-0.075,0.248-0.075c0.089,0,0.174,0.026,0.249,0.075l1.27,0.831c0.211,0.139,0.271,0.424,0.132,0.635
			c-0.085,0.13-0.229,0.207-0.384,0.207c-0.089,0-0.531-0.026-0.607-0.075L23.5,43.805v4.74l4.46-2.37l-0.42-0.302
			c-0.109-0.055-0.102-0.15-0.14-0.266c-0.038-0.116,0.015-0.241,0.071-0.35c0.078-0.155,0.258-0.252,0.432-0.252
			c0.072,0,0.153,0.017,0.218,0.05l1.361,0.685c0.163,0.082,0.264,0.253,0.254,0.435l-0.083,1.515
			c-0.014,0.243-0.214,0.433-0.457,0.433c-0.149-0.008-0.261-0.061-0.342-0.153c-0.081-0.091-0.122-0.209-0.115-0.331l0.037-0.669
			l-4.104,2.37l4.104,2.369l-0.037-0.668c-0.007-0.123,0.034-0.602,0.116-0.693c0.082-0.091,0.194-0.514,0.316-0.514
			c0,0,0.001,0,0.001,0c0.269,0,0.469,0.551,0.482,0.794l0.085,1.697c0.01,0.182-0.088,0.443-0.251,0.525l-1.355,0.729
			C28.067,53.611,27.996,53.673,27.925,53.673z"/>
	</g>
	<rect x="23.5" y="42.833" fill="#004F9F" width="1" height="6"/>
</g>
</svg>
