<?xml version="1.0" encoding="utf-8"?>
<!-- Generator: Adobe Illustrator 17.0.0, SVG Export Plug-In . SVG Version: 6.00 Build 0)  -->
<!DOCTYPE svg PUBLIC "-//W3C//DTD SVG 1.1//EN" "http://www.w3.org/Graphics/SVG/1.1/DTD/svg11.dtd">
<svg version="1.1" id="Layer_1" xmlns="http://www.w3.org/2000/svg" xmlns:xlink="http://www.w3.org/1999/xlink" x="0px" y="0px"
	 width="90px" height="90px" viewBox="0 0 90 90" enable-background="new 0 0 90 90" xml:space="preserve">
<g>
	<g id="XMLID_5_">
		<g id="XMLID_6_">
			<path id="XMLID_8_" fill="#004F9F" d="M41.213,10.013L28.131,23.096c-0.418,0.418-0.418,1.096,0,1.515l6.168,6.168
				c0.316,0.316,0.794,0.402,1.2,0.218c0.406-0.184,0.656-0.602,0.626-1.047c-0.063-0.932,0.303-1.823,1.002-2.444
				c1.118-0.993,2.811-1.002,3.938-0.021c0.636,0.554,1.003,1.32,1.032,2.157c0.029,0.838-0.281,1.626-0.874,2.219
				c-0.61,0.61-1.454,0.926-2.317,0.868c-0.445-0.03-0.863,0.219-1.047,0.626c-0.185,0.406-0.098,0.885,0.218,1.2l0.199,0.199
				c-0.929,0.152-1.824,0.558-2.57,1.22c-0.601,0.534-1.058,1.184-1.351,1.9l-4.708-4.708c-0.418-0.418-1.096-0.418-1.515,0
				L15.048,46.248c-2.088,2.088-2.088,5.485,0,7.573l26.166,26.166c2.088,2.088,5.485,2.088,7.573,0l26.166-26.166
				c2.088-2.088,2.088-5.485,0-7.573l-1.619-1.619c-0.418-0.418-1.096-0.418-1.515,0c-0.418,0.418-0.418,1.096,0,1.515l1.619,1.619
				c1.253,1.253,1.253,3.291,0,4.544L61.112,64.633l-5.41-5.41c-0.316-0.316-0.794-0.402-1.2-0.218
				c-0.406,0.184-0.656,0.602-0.626,1.047c0.058,0.863-0.258,1.708-0.868,2.318c-0.593,0.593-1.381,0.903-2.219,0.874
				c-0.837-0.029-1.604-0.395-2.158-1.032c-0.981-1.127-0.972-2.82,0.021-3.938c0.621-0.699,1.512-1.065,2.444-1.002
				c0.445,0.03,0.862-0.219,1.047-0.626c0.185-0.406,0.098-0.885-0.218-1.2l-5.41-5.41l3.953-3.953
				c0.255,0.625,0.634,1.201,1.122,1.689c1.003,1.003,2.39,1.549,3.808,1.5c1.437-0.05,2.751-0.677,3.699-1.766
				c1.685-1.937,1.67-4.845-0.035-6.766c-0.534-0.601-1.184-1.058-1.9-1.351l3.951-3.951l3.891,3.891
				c0.418,0.418,1.096,0.418,1.515,0s0.418-1.096,0-1.515l-4.648-4.648c-0.418-0.418-1.096-0.418-1.515,0l-0.073,0.073
				c-0.174-1.05-0.672-2.034-1.433-2.796c-0.488-0.488-1.064-0.867-1.689-1.122l4.711-4.711c0.418-0.418,0.418-1.096,0-1.515
				L48.787,10.013C46.699,7.925,43.301,7.925,41.213,10.013L41.213,10.013z M16.562,52.307c-1.253-1.253-1.253-3.291,0-4.544
				l12.326-12.326l5.41,5.41c0.316,0.316,0.794,0.402,1.2,0.218c0.406-0.184,0.656-0.602,0.626-1.047
				c-0.063-0.932,0.303-1.823,1.002-2.444c1.118-0.993,2.811-1.002,3.938-0.021c0.636,0.554,1.003,1.32,1.032,2.158
				c0.029,0.838-0.281,1.626-0.874,2.219c-0.61,0.61-1.454,0.926-2.317,0.868c-0.446-0.03-0.863,0.219-1.047,0.626
				c-0.185,0.406-0.098,0.885,0.218,1.2l5.41,5.41l-3.953,3.953c-0.255-0.625-0.634-1.201-1.122-1.689
				c-1.003-1.003-2.39-1.549-3.808-1.5c-1.437,0.05-2.751,0.677-3.699,1.766c-1.685,1.937-1.67,4.845,0.035,6.766
				c0.534,0.601,1.184,1.058,1.9,1.351l-3.951,3.951L16.562,52.307z M47.05,56.851c-1.705,1.921-1.72,4.829-0.035,6.766
				c0.948,1.089,2.262,1.717,3.699,1.766c1.418,0.049,2.805-0.498,3.808-1.5c0.488-0.488,0.867-1.064,1.122-1.689l3.953,3.953
				L47.272,78.473c-1.253,1.253-3.291,1.253-4.544,0L30.402,66.147l5.41-5.41c0.316-0.316,0.402-0.794,0.218-1.2
				c-0.185-0.406-0.602-0.656-1.047-0.626c-0.932,0.063-1.822-0.302-2.444-1.002c-0.993-1.118-1.002-2.811-0.021-3.938
				c0.554-0.636,1.32-1.003,2.158-1.032c0.838-0.029,1.626,0.281,2.219,0.874c0.61,0.61,0.926,1.454,0.868,2.317
				c-0.03,0.445,0.219,0.863,0.626,1.047c0.406,0.185,0.885,0.098,1.2-0.218L45,51.55l3.951,3.951
				C48.234,55.793,47.584,56.25,47.05,56.851L47.05,56.851z M55.016,41.159c0.932-0.063,1.822,0.302,2.444,1.002
				c0.993,1.118,1.002,2.811,0.021,3.938c-0.554,0.636-1.32,1.003-2.158,1.032c-0.838,0.029-1.626-0.281-2.219-0.874
				c-0.61-0.61-0.926-1.454-0.868-2.317c0.03-0.445-0.219-0.863-0.626-1.047c-0.406-0.185-0.885-0.098-1.2,0.218L45,48.52
				l-3.953-3.953c0.625-0.255,1.201-0.634,1.689-1.122c0.762-0.762,1.259-1.746,1.433-2.796l0.073,0.073
				c0.418,0.418,1.096,0.418,1.515,0l4.708-4.708c0.293,0.717,0.75,1.367,1.351,1.9c0.746,0.662,1.641,1.068,2.57,1.22l-0.199,0.199
				c-0.316,0.316-0.402,0.794-0.218,1.2C54.154,40.94,54.571,41.189,55.016,41.159L55.016,41.159z M59.598,23.853l-5.41,5.41
				c-0.316,0.316-0.402,0.794-0.218,1.2c0.185,0.406,0.602,0.656,1.047,0.626c0.863-0.058,1.708,0.258,2.317,0.868
				c0.593,0.593,0.903,1.381,0.874,2.219c-0.029,0.837-0.395,1.604-1.032,2.158c-1.127,0.981-2.82,0.972-3.938-0.021
				c-0.7-0.621-1.065-1.512-1.002-2.444c0.03-0.445-0.219-0.863-0.626-1.047c-0.406-0.185-0.885-0.098-1.2,0.218L45,38.45
				l-3.953-3.953c0.625-0.255,1.201-0.634,1.689-1.122c1.003-1.003,1.549-2.39,1.5-3.808c-0.05-1.437-0.677-2.751-1.766-3.699
				c-1.937-1.685-4.845-1.67-6.766,0.035c-0.601,0.534-1.058,1.184-1.351,1.9l-3.951-3.951l12.325-12.325
				c1.253-1.253,3.291-1.253,4.544,0L59.598,23.853z"/>
			<path id="XMLID_7_" fill="#004F9F" d="M68.411,41.222c-0.199,0.199-0.314,0.476-0.314,0.757c0,0.282,0.114,0.558,0.314,0.757
				c0.199,0.199,0.476,0.314,0.757,0.314c0.282,0,0.558-0.114,0.757-0.314c0.199-0.199,0.314-0.476,0.314-0.757
				c0.001-0.282-0.114-0.558-0.314-0.757c-0.199-0.199-0.475-0.314-0.757-0.314C68.886,40.908,68.61,41.022,68.411,41.222z"/>
		</g>
	</g>
</g>
</svg>
