<?xml version="1.0" encoding="utf-8"?>
<!-- Generator: Adobe Illustrator 17.0.0, SVG Export Plug-In . SVG Version: 6.00 Build 0)  -->
<!DOCTYPE svg PUBLIC "-//W3C//DTD SVG 1.1//EN" "http://www.w3.org/Graphics/SVG/1.1/DTD/svg11.dtd">
<svg version="1.1" id="Layer_1" xmlns="http://www.w3.org/2000/svg" xmlns:xlink="http://www.w3.org/1999/xlink" x="0px" y="0px"
	 width="65px" height="40px" viewBox="0 0 65 40" enable-background="new 0 0 65 40" xml:space="preserve">
<g>
	<path fill="#FFFFFF" d="M36.643,37.5C36.609,37.5,36,37.667,36,36.757V24.5h-7v12.251c0,0.017-0.16,0.749-0.692,0.749H17.892
		C17.561,37.5,17,37.086,17,36.751V19.128c0-0.333,0.163-0.603,0.5-0.603s0.5,0.271,0.5,0.603V36.5h10v-14h9v14h9V19.128
		c0-0.333,0.163-0.603,0.5-0.603c0.337,0,0.5,0.271,0.5,0.603v17.623c0,0.335,0.387,0.749,0.059,0.749H36.643z"/>
	<path fill="#FFFFFF" d="M52.076,16.918c-0.025-0.159,0.092-0.299-0.038-0.395L46,11.955V5.168l-4.907-0.041
		C40.938,5.126,41,5.109,41,5.265V8.63l-8.195-6.02c-0.104-0.076-0.214-0.117-0.343-0.117c-0.129,0-0.245,0.04-0.349,0.117
		L13.112,16.524c-0.13,0.095-0.214,0.235-0.238,0.395c-0.025,0.159,0.015,0.318,0.11,0.448c0.115,0.157,0.293,0.247,0.488,0.247
		c0.128,0,0.252-0.04,0.356-0.117L32.475,3.844l18.648,13.654c0.104,0.076,0.227,0.116,0.355,0.116c0.195,0,0.373-0.09,0.488-0.247
		C52.061,17.237,52.1,17.077,52.076,16.918z M42,6.5h3v5.042l-3-2.5V6.5z"/>
</g>
</svg>
