<?xml version="1.0" encoding="utf-8"?>
<!-- Generator: Adobe Illustrator 17.0.0, SVG Export Plug-In . SVG Version: 6.00 Build 0)  -->
<!DOCTYPE svg PUBLIC "-//W3C//DTD SVG 1.1//EN" "http://www.w3.org/Graphics/SVG/1.1/DTD/svg11.dtd">
<svg version="1.1" id="Layer_1" xmlns="http://www.w3.org/2000/svg" xmlns:xlink="http://www.w3.org/1999/xlink" x="0px" y="0px"
	 width="65px" height="40px" viewBox="0 0 65 40" enable-background="new 0 0 65 40" xml:space="preserve">
<g>
	<path fill="#FFFFFF" d="M52.82,35.04c-1.387,0-2.735-0.481-3.795-1.354c-1.053-0.867-1.781-2.164-2.05-3.507l-0.12-0.68h-28.34
		l-0.12,0.68c-0.27,1.343-0.997,2.6-2.05,3.467c-1.06,0.873-2.407,1.374-3.794,1.374c-2.874,0-5.34-2.035-5.864-4.852L6.592,29.67
		L5.73,29.579C2.907,29.054,0.5,26.59,0.5,23.717v-5.369c0-3.288,3.034-5.963,6.323-5.963c1.479,0,3.033-0.734,3.856-1.964
		l2.375-3.35c1.106-1.658,3.051-2.57,5.053-2.57h19.405c1.359,0,2.683,0.382,3.728,1.216l10.578,8.638
		c0.769,0.617,1.749,1.146,2.759,1.146h2.271c4.746,0,7.308,4.234,7.308,8.433c0,1.482-0.473,2.716-1.368,3.783
		c-0.883,1.054-2.092,1.68-3.495,1.919l-0.512,0.059l-0.096,0.497C58.153,33.009,55.688,35.04,52.82,35.04z M47.5,29.107
		c0,2.623,2.422,4.752,5.046,4.752c2.632,0,4.91-2.141,4.91-4.773s-2.346-4.773-4.978-4.773c-2.624,0-4.978,2.13-4.978,4.752V29.107
		z M12.549,24.313c-2.632,0-4.773,2.141-4.773,4.773s2.141,4.773,4.773,4.773s4.773-2.141,4.773-4.773S15.181,24.313,12.549,24.313z
		 M18.107,5.5c-1.6,0-3.085,0.806-3.972,2.135l-2.286,3.432c-1.044,1.566-3.241,2.504-5.122,2.504c-2.634,0-5.227,2.145-5.227,4.777
		v5.369c0,2.08,1.844,3.957,3.84,4.564l0.988,0.232l0.293-0.778c0.299-1.29,1.094-2.462,2.135-3.301
		c1.056-0.851,2.411-1.32,3.765-1.32c2.822,0,5.294,2.016,5.859,4.778l0.136,0.608h28.335l0.122-0.608
		c0.565-2.762,3.024-4.772,5.845-4.772c1.354,0,2.682,0.468,3.738,1.321c1.041,0.842,1.779,2.016,2.076,3.309l0.175,0.762
		l0.753-0.211c2.097-0.587,3.4-2.232,3.4-4.464c0-2.992-1.629-7.338-6.116-7.338h-2.269c-1.261,0-2.505-0.548-3.503-1.351
		L40.496,6.61c-0.845-0.674-1.905-1.11-2.985-1.11H18.107z"/>
	<path fill="#FFFFFF" d="M31.342,16.5c-0.314,0-0.842-0.499-0.842-0.837v-5.369c0-0.329,0.174-0.596,0.5-0.596s0.5,0.267,0.5,0.596
		V15.5h13.266c0.323,0,0.596,0.163,0.596,0.5s-0.273,0.5-0.596,0.5H31.342z"/>
	<path fill="#FFFFFF" d="M15.234,16.5c-0.199,0-0.393-0.221-0.506-0.404c-0.107-0.173-0.119-0.464-0.028-0.643l2.686-5.401
		c0.103-0.205,0.308-0.346,0.535-0.346c0.092,0,0.182,0.015,0.267,0.057c0.295,0.148,0.413,0.723,0.265,1.019L16.195,15.5h9.777
		c0.323,0,0.596,0.163,0.596,0.5s-0.273,0.5-0.596,0.5H15.234z"/>
	<path fill="#FFFFFF" d="M34.027,21.5c-0.329,0-0.596-0.174-0.596-0.5s0.267-0.5,0.596-0.5h2.685c0.329,0,0.596,0.174,0.596,0.5
		s-0.267,0.5-0.596,0.5H34.027z"/>
</g>
</svg>
