<?xml version="1.0" encoding="utf-8"?>
<!-- Generator: Adobe Illustrator 17.0.0, SVG Export Plug-In . SVG Version: 6.00 Build 0)  -->
<!DOCTYPE svg PUBLIC "-//W3C//DTD SVG 1.1//EN" "http://www.w3.org/Graphics/SVG/1.1/DTD/svg11.dtd">
<svg version="1.1" id="Layer_1" xmlns="http://www.w3.org/2000/svg" xmlns:xlink="http://www.w3.org/1999/xlink" x="0px" y="0px"
	 width="90px" height="90px" viewBox="0 0 90 90" enable-background="new 0 0 90 90" xml:space="preserve">
<g>
	<path fill="#004F9F" d="M40.5,25.833h5v-3h-5V25.833z M41.5,23.833h3v1h-3V23.833z"/>
	<path fill="#004F9F" d="M46.5,25.833h5v-3h-5V25.833z M48,23.443h2v1h-2V23.443z"/>
	<path fill="#004F9F" d="M52.5,25.833h4v-3h-4V25.833z M54,23.443h2v1h-2V23.443z"/>
	<circle fill="#004F9F" cx="66.837" cy="24.029" r="3.936"/>
	<path fill="#004F9F" d="M53.215,58.829L51.7,60.345c-0.167,0.167-0.167,0.439,0,0.606c0.167,0.167,0.439,0.167,0.606,0l1.516-1.516
		c0.167-0.167,0.167-0.439,0-0.606C53.654,58.662,53.383,58.662,53.215,58.829z"/>
	<path fill="#004F9F" d="M55.034,55.798c-0.167-0.167-0.439-0.167-0.606,0l-1.516,1.516c-0.167,0.167-0.167,0.439,0,0.606
		c0.167,0.167,0.439,0.167,0.606,0l1.516-1.516C55.201,56.237,55.201,55.966,55.034,55.798z"/>
	<path fill="#004F9F" d="M57.459,55.798l-1.516,1.516c-0.167,0.167-0.167,0.439,0,0.606c0.167,0.167,0.439,0.167,0.606,0
		l1.516-1.516c0.167-0.167,0.167-0.439,0-0.606C57.898,55.631,57.626,55.631,57.459,55.798z"/>
	<path fill="#004F9F" d="M58.672,51.554c-0.167-0.167-0.439-0.167-0.606,0L56.55,53.07c-0.167,0.167-0.167,0.439,0,0.606
		c0.167,0.167,0.439,0.167,0.606,0l1.516-1.516C58.839,51.993,58.839,51.722,58.672,51.554z"/>
	<path fill="#004F9F" d="M38.878,65.061c0.167-0.167,0.167-0.439,0-0.606l-1.516-1.516c-0.167-0.167-0.439-0.167-0.606,0
		c-0.167,0.167-0.167,0.439,0,0.606l1.516,1.516C38.44,65.228,38.711,65.228,38.878,65.061z"/>
	<path fill="#004F9F" d="M33.725,62.332l1.516,1.516c0.167,0.167,0.439,0.167,0.606,0c0.167-0.167,0.167-0.439,0-0.606l-1.516-1.516
		c-0.167-0.167-0.439-0.167-0.606,0C33.558,61.894,33.558,62.165,33.725,62.332z"/>
	<path fill="#004F9F" d="M35.241,60.817c0.167,0.167,0.439,0.167,0.606,0c0.167-0.167,0.167-0.439,0-0.606l-1.516-1.516
		c-0.167-0.167-0.439-0.167-0.606,0c-0.167,0.167-0.167,0.439,0,0.606L35.241,60.817z"/>
	<path fill="#004F9F" d="M31.603,60.211c0.167-0.167,0.167-0.439,0-0.606l-1.516-1.516c-0.167-0.167-0.439-0.167-0.606,0
		c-0.167,0.167-0.167,0.439,0,0.606l1.516,1.516C31.164,60.378,31.436,60.378,31.603,60.211z"/>
	<path fill="#004F9F" d="M79.5,77.996v-0.162c-2,0-6,0-11,0v-15h-15v0.582c0,3.49-2.418,5.413-5.468,5.986
		c0.683-0.726,1.468-1.698,1.468-2.769V45.833h3.717l3.763-7h15.87c4.162,0,5.585-2.848,5.649-6.284V15.402
		c0-3.073-2.577-5.569-5.649-5.569H17.121c-3.073,0-5.621,2.496-5.621,5.569v17.148c0,3.073,2.548,6.284,5.621,6.284H33.42l3.763,7
		H40.5v20.799c0,1.11,0.744,2.116,1.472,2.849c-3.54-0.153-7.472-0.434-9.472-0.575v-3.073h-17v12c-2,0-5,0-6,0v0.162
		c-1,0.029-1.232,0.589-1.232,1.281S8.5,80.528,9.5,80.557v0.276c1,0,3.763,0,6.764,0h6.002h44.584h1.286c5.211,0,9.365,0,11.365,0
		v-0.276c1-0.029,1.232-0.589,1.232-1.281S80.5,78.024,79.5,77.996z M75.5,32.833c0,1.657-1.344,3.001-3.001,3.001H17.501
		c-1.657,0-3.001-1.344-3.001-3.001V15.834c0-1.657,1.344-3.001,3.001-3.001h54.998c1.657,0,3.001,1.344,3.001,3.001V32.833z
		 M38.452,42.833l-2.587-4h18.671l-2.587,4H38.452z M42.5,62.57v-4.612l5,5.573v2.809v0.287c0,0.439,0.177,0.853-0.006,1.222
		L42.5,62.57z M46.911,68.842c-0.466,0.35-1.021,0.561-1.646,0.561c-1.53,0-2.765-1.245-2.765-2.773v-2.242L46.911,68.842z
		 M42.5,56.139v-4.612l5,5.573v4.612L42.5,56.139z M42.5,49.709v-3.876h5v9.449L42.5,49.709z M65.5,77.833H22.265H18.5v-10h12v3.464
		l0.931,0.089c0.423,0.032,10.281,0.84,14.774,0.84c5.436,0,9.382-2.392,10.048-7.392H65.5V77.833z"/>
</g>
</svg>
