<?xml version="1.0" encoding="utf-8"?>
<!-- Generator: Adobe Illustrator 17.0.0, SVG Export Plug-In . SVG Version: 6.00 Build 0)  -->
<!DOCTYPE svg PUBLIC "-//W3C//DTD SVG 1.1//EN" "http://www.w3.org/Graphics/SVG/1.1/DTD/svg11.dtd">
<svg version="1.1" id="Layer_1" xmlns="http://www.w3.org/2000/svg" xmlns:xlink="http://www.w3.org/1999/xlink" x="0px" y="0px"
	 width="300px" height="60px" viewBox="0 0 300 60" enable-background="new 0 0 300 60" xml:space="preserve">
<g>
	<path fill-rule="evenodd" clip-rule="evenodd" fill="#FFFFFF" d="M4.874,2.175h290.695l-0.544,2.031h3.004l-2.902,10.834H36.949
		L25.481,57.828H11.883l0.544-2.028H9.422l10.925-40.761H4.429l0.546-2.031H1.971L4.874,2.175z M248.975,45.873
		c0.191,0.041,0.393,0.074,0.605,0.101c1.603,0.209,4.783,0.318,9.557,0.318c4.466,0,7.461-0.082,8.98-0.237
		c1.52-0.163,2.712-0.519,3.57-1.075c0.778-0.493,1.414-1.232,1.9-2.197c0.489-0.976,1.034-2.561,1.627-4.775
		c0.703-2.618,1.128-4.541,1.282-5.769c0.105-0.87,0.099-1.591-0.02-2.159c-0.084-0.015-0.171-0.029-0.257-0.041
		c-1.301-0.192-4.538-0.284-9.698-0.284c-5.889,0-9.476,0.156-10.752,0.457c-1.462,0.356-2.579,1.148-3.337,2.389
		c-0.761,1.239-1.63,3.699-2.622,7.392c-0.592,2.222-0.909,3.836-0.948,4.829C248.851,45.207,248.89,45.556,248.975,45.873z
		 M266.572,18.249c7.867,0,13.231,0.192,16.078,0.584c2.584,0.36,4.359,1.295,5.329,2.805c2.198,0.991,3.311,2.754,3.335,5.293
		c0.022,2.38-0.734,6.416-2.255,12.095c-1.526,5.696-2.939,9.742-4.234,12.122c-1.897,3.473-5.049,5.494-9.455,6.07
		c-3.063,0.392-8.49,0.583-16.284,0.583c-7.943,0-13.341-0.192-16.189-0.583c-2.583-0.363-4.357-1.297-5.33-2.808
		c-2.198-0.99-3.31-2.754-3.336-5.293c-0.018-2.378,0.758-6.498,2.322-12.332c1.491-5.559,2.88-9.525,4.17-11.885
		c1.897-3.471,5.044-5.496,9.457-6.068C253.219,18.441,258.688,18.249,266.572,18.249z M186.307,18.787h19.473l0.882,2.029h1.58
		l10.66,24.53l6.859-26.558h11.294l-0.544,2.029h3.005l-9.768,36.448h-19.308l-0.888-2.03h-1.571l-10.776-24.618l-6.91,26.649
		h-11.294l0.543-2.03h-3.005L186.307,18.787z M132.788,18.787h11.669l-0.544,2.029h3.005l-2.95,11.004h22.081l3.496-13.033h11.669
		l-0.547,2.029h3.005l-9.767,36.448h-11.669l0.546-2.03h-3.005l2.996-11.184H140.69l-3.539,13.215h-11.669l0.543-2.03h-3.004
		L132.788,18.787z M111.814,41.161h11.113c-0.186,0.806-0.344,1.483-0.476,2.029h2.934c-0.411,1.779-0.681,2.927-0.82,3.447
		c-0.754,2.816-1.765,5.011-3.027,6.598c-1.397,1.776-3.526,2.989-6.388,3.626c-2.861,0.648-7.596,0.967-14.205,0.967
		c-6.934,0-11.85-0.137-14.724-0.399c-2.873-0.267-4.958-0.786-6.248-1.55c-0.742-0.451-1.321-1.004-1.729-1.659
		c-0.268-0.117-0.51-0.241-0.73-0.372c-1.147-0.693-1.899-1.632-2.239-2.808c-0.342-1.175-0.341-2.779,0.009-4.83
		c0.288-1.659,1.01-4.648,2.168-8.978c1.131-4.219,2.03-7.264,2.685-9.132c0.665-1.868,1.365-3.318,2.102-4.346
		c1.635-2.316,4.097-3.82,7.379-4.502c3.285-0.685,9.622-1.03,19.019-1.03c4.704,0,8.092,0.108,10.171,0.318
		c2.082,0.219,3.669,0.62,4.781,1.203c0.855,0.463,1.498,1.057,1.94,1.784c0.185,0.077,0.357,0.16,0.52,0.247
		c1.449,0.784,2.295,1.95,2.565,3.49c0.264,1.54-0.006,3.8-0.811,6.799c-0.041,0.155-0.213,0.766-0.51,1.813h-11.104
		c0.195-0.893,0.321-1.571,0.383-2.029h-2.845c0.215-0.967,0.345-1.679,0.398-2.135c-0.264-0.037-0.549-0.07-0.86-0.1
		c-1.677-0.174-4.268-0.256-7.779-0.256c-3.473,0-5.9,0.072-7.271,0.228c-1.382,0.154-2.4,0.448-3.076,0.894
		c-0.8,0.537-1.498,1.431-2.1,2.699c-0.595,1.265-1.261,3.279-2.003,6.041c-0.735,2.753-1.139,4.703-1.216,5.834
		c-0.029,0.465-0.01,0.876,0.063,1.232c0.269,0.058,0.561,0.107,0.876,0.146c1.326,0.155,3.71,0.237,7.165,0.237
		c4.25,0,7.112-0.073,8.561-0.208c1.452-0.146,2.493-0.457,3.124-0.94C110.43,44.897,111.167,43.44,111.814,41.161z M78.917,20.815
		h3.007l-2.299,8.568H50.189l-0.869,3.238h24.935l-0.543,2.032h3.004l-2.147,8.009H46.63l-1.022,3.814h26.642l-0.545,2.028h3.005
		l-2.347,8.759H31.771l0.541-2.03h-3.004l9.77-36.446h40.383L78.917,20.815z"/>
	<path fill="#1D1D1B" d="M294.953,2.648H5.237l-2.65,9.886h2.389h0.617L5.432,13.13l-0.383,1.434h15.299h0.617l-0.161,0.597
		L10.041,55.325h2.388h0.617l-0.161,0.595l-0.384,1.434h12.62l11.37-42.439l0.096-0.351h0.361h257.813l2.65-9.887h-2.389h-0.614
		l0.161-0.595L294.953,2.648z M4.873,1.7h290.696h0.617l-0.161,0.596l-0.383,1.434h2.387h0.616l-0.159,0.594l-2.905,10.837
		l-0.092,0.349h-0.363H37.312L25.94,57.951L25.846,58.3h-0.363H11.884h-0.616l0.161-0.595l0.384-1.434H9.424H8.808l0.159-0.595
		L19.731,15.51h-15.3H3.815l0.159-0.595l0.385-1.434H1.971H1.355l0.159-0.596L4.418,2.051L4.511,1.7H4.873z M249.372,45.467
		c0.074,0.012,0.165,0.025,0.266,0.036l0.003,0.003c0.788,0.103,1.977,0.182,3.561,0.235c1.541,0.051,3.521,0.077,5.935,0.077
		c2.275,0,4.13-0.021,5.565-0.058c1.485-0.038,2.608-0.099,3.363-0.175c0.73-0.079,1.38-0.202,1.949-0.373
		c0.551-0.166,1.023-0.376,1.416-0.629l0.004-0.002c0.347-0.22,0.667-0.499,0.954-0.828c0.29-0.337,0.551-0.734,0.776-1.183h0.002
		c0.233-0.464,0.483-1.091,0.749-1.873c0.265-0.775,0.546-1.714,0.839-2.811c0.356-1.322,0.636-2.445,0.838-3.367
		c0.213-0.951,0.357-1.731,0.434-2.337h-0.003c0.051-0.424,0.075-0.806,0.072-1.135c-0.001-0.196-0.014-0.382-0.034-0.553
		c-0.647-0.086-1.736-0.153-3.259-0.198c-1.563-0.043-3.663-0.067-6.284-0.067c-2.957,0-5.316,0.039-7.071,0.113
		c-1.767,0.075-2.961,0.186-3.573,0.329c-0.67,0.162-1.26,0.425-1.766,0.788c-0.503,0.359-0.93,0.823-1.277,1.386
		c-0.363,0.591-0.757,1.489-1.181,2.688c-0.431,1.215-0.891,2.743-1.384,4.58c-0.296,1.102-0.52,2.048-0.677,2.837
		c-0.154,0.789-0.24,1.419-0.257,1.887c-0.005,0.166,0.003,0.329,0.017,0.484L249.372,45.467z M249.186,46.394l-0.297-0.058
		l-0.294-0.056l-0.077-0.285c-0.048-0.18-0.083-0.372-0.107-0.573v-0.003c-0.018-0.189-0.025-0.396-0.02-0.61v-0.005
		c0.02-0.527,0.112-1.206,0.274-2.036c0.161-0.82,0.391-1.786,0.688-2.899c0.496-1.854,0.967-3.405,1.407-4.653
		c0.446-1.259,0.871-2.216,1.266-2.863c0.412-0.674,0.927-1.23,1.534-1.666c0.607-0.431,1.306-0.744,2.097-0.936l0.003-0.002
		c0.664-0.157,1.919-0.275,3.753-0.352c1.825-0.077,4.194-0.117,7.105-0.117c2.537,0,4.639,0.024,6.31,0.072
		c1.641,0.046,2.793,0.121,3.455,0.217l0.005,0.002l0.258,0.041l0.321,0.052l0.068,0.318c0.064,0.309,0.101,0.664,0.104,1.054
		c0.004,0.388-0.023,0.809-0.075,1.256l-0.001,0.004c-0.08,0.629-0.229,1.44-0.448,2.425c-0.22,0.993-0.502,2.13-0.844,3.407
		c-0.298,1.102-0.584,2.062-0.857,2.871c-0.28,0.816-0.551,1.481-0.805,1.993v0.002c-0.26,0.519-0.564,0.979-0.908,1.374
		c-0.345,0.4-0.733,0.738-1.16,1.007v0.002c-0.469,0.3-1.019,0.549-1.656,0.739c-0.62,0.187-1.329,0.322-2.119,0.407h-0.002
		c-0.766,0.077-1.914,0.14-3.44,0.178c-1.55,0.041-3.414,0.063-5.588,0.063c-2.342,0-4.331-0.029-5.963-0.082
		c-1.615-0.053-2.834-0.135-3.653-0.242v0.001c-0.096-0.01-0.205-0.028-0.326-0.048L249.186,46.394z M276.478,18.862
		c-2.639-0.095-5.942-0.141-9.906-0.141c-3.974,0-7.308,0.046-9.995,0.141c-2.719,0.097-4.832,0.243-6.337,0.436
		c-2.133,0.277-3.96,0.905-5.477,1.878c-1.507,0.967-2.718,2.287-3.625,3.95c-0.632,1.158-1.293,2.719-1.979,4.674
		c-0.689,1.96-1.406,4.331-2.15,7.107c-0.779,2.917-1.364,5.394-1.745,7.427c-0.382,2.027-0.568,3.619-0.561,4.78
		c0.009,1.177,0.274,2.173,0.781,2.98c0.504,0.8,1.266,1.43,2.279,1.884l0.128,0.058l0.076,0.118
		c0.441,0.684,1.069,1.244,1.882,1.67c0.837,0.443,1.875,0.751,3.11,0.925c1.412,0.193,3.46,0.339,6.138,0.434
		c2.657,0.092,5.987,0.142,9.988,0.142c3.929,0,7.232-0.05,9.902-0.142c2.698-0.096,4.808-0.241,6.321-0.434
		c2.131-0.278,3.96-0.905,5.476-1.878c1.507-0.972,2.716-2.286,3.626-3.95c0.632-1.165,1.302-2.751,1.998-4.748
		c0.698-1.999,1.43-4.426,2.193-7.271c0.761-2.842,1.329-5.259,1.7-7.249c0.371-1.985,0.551-3.561,0.542-4.719
		c-0.012-1.178-0.274-2.174-0.781-2.981c-0.504-0.8-1.266-1.429-2.279-1.886l-0.128-0.056l-0.075-0.119
		c-0.438-0.684-1.068-1.244-1.882-1.672c-0.84-0.442-1.878-0.75-3.113-0.923C281.177,19.105,279.14,18.959,276.478,18.862z
		 M266.572,17.772c3.904,0,7.218,0.051,9.939,0.149c2.697,0.097,4.767,0.246,6.203,0.441h0.001c1.344,0.189,2.489,0.53,3.425,1.024
		c0.914,0.481,1.634,1.109,2.157,1.88c1.124,0.529,1.98,1.256,2.564,2.185c0.602,0.956,0.912,2.116,0.925,3.475v0.001
		c0.01,1.218-0.176,2.852-0.556,4.895c-0.381,2.042-0.955,4.485-1.715,7.325c-0.761,2.848-1.503,5.298-2.215,7.337
		c-0.713,2.043-1.4,3.675-2.061,4.885c-0.987,1.808-2.304,3.241-3.946,4.294c-1.632,1.049-3.587,1.723-5.864,2.019h-0.002
		c-1.544,0.197-3.682,0.346-6.407,0.442c-2.757,0.098-6.07,0.147-9.934,0.147c-3.938,0-7.279-0.047-10.021-0.147
		c-2.713-0.095-4.793-0.244-6.233-0.442c-1.346-0.19-2.487-0.531-3.423-1.023c-0.917-0.482-1.637-1.11-2.159-1.879
		c-1.124-0.53-1.981-1.258-2.563-2.185c-0.603-0.958-0.912-2.118-0.925-3.476V49.12c-0.01-1.22,0.181-2.875,0.574-4.957
		c0.39-2.08,0.98-4.581,1.762-7.5c0.744-2.781,1.468-5.174,2.169-7.173c0.703-2.005,1.385-3.612,2.041-4.814
		c0.988-1.807,2.303-3.241,3.947-4.295c1.632-1.048,3.589-1.721,5.866-2.018h0.002c1.536-0.196,3.677-0.344,6.421-0.441
		C259.319,17.823,262.663,17.772,266.572,17.772z M205.472,19.257h-18.801l-9.514,35.502h2.389h0.616l-0.161,0.595l-0.384,1.435
		h10.314l6.818-26.294l0.341-1.321l0.549,1.251l10.651,24.333h1.264h0.308l0.125,0.286l0.765,1.745h18.635l9.517-35.501h-2.389
		h-0.617l0.161-0.596l0.385-1.435h-10.314l-6.769,26.204l-0.342,1.329l-0.546-1.257l-10.538-24.244h-1.271h-0.308l-0.125-0.285
		L205.472,19.257z M186.307,18.313h19.473h0.31l0.123,0.286l0.759,1.743h1.271h0.308l0.125,0.286l10.113,23.271l6.517-25.231
		l0.092-0.354h0.366h11.294h0.617l-0.162,0.595l-0.382,1.434h2.388h0.616l-0.16,0.596l-9.77,36.448l-0.094,0.351h-0.361h-19.308
		h-0.308l-0.125-0.285l-0.766-1.745h-1.262h-0.308l-0.125-0.286L197.32,32.052l-6.566,25.329l-0.092,0.355h-0.366h-11.294h-0.617
		l0.161-0.594l0.384-1.435h-2.388h-0.617l0.159-0.597l9.769-36.446l0.094-0.351H186.307z M143.841,19.257h-10.69l-9.513,35.502
		h2.387h0.618l-0.159,0.595l-0.386,1.435h10.689l3.448-12.864l0.095-0.352h0.361h22.082h0.617l-0.16,0.595l-2.838,10.59h2.388h0.618
		l-0.16,0.595l-0.384,1.435h10.687l9.517-35.501h-2.391h-0.614l0.159-0.596l0.386-1.435h-10.689l-3.401,12.684l-0.095,0.351h-0.364
		h-22.082h-0.614l0.161-0.597l2.788-10.407h-2.39h-0.616l0.161-0.596L143.841,19.257z M122.333,41.634h-10.165
		c-0.302,1.013-0.624,1.862-0.97,2.539c-0.4,0.792-0.836,1.368-1.305,1.72c-0.363,0.275-0.83,0.501-1.404,0.673
		c-0.544,0.162-1.201,0.284-1.957,0.36h-0.003c-0.737,0.068-1.836,0.122-3.292,0.158c-1.481,0.036-3.257,0.055-5.313,0.055
		c-1.679,0-3.138-0.022-4.371-0.062c-1.23-0.04-2.179-0.101-2.847-0.179h-0.001c-0.156-0.018-0.315-0.043-0.478-0.07
		c-0.157-0.025-0.308-0.053-0.441-0.083l-0.303-0.064l-0.061-0.304c-0.041-0.204-0.069-0.419-0.079-0.647v-0.002
		c-0.014-0.226-0.01-0.464,0.007-0.711c0.039-0.586,0.164-1.383,0.372-2.382c0.202-0.988,0.493-2.172,0.86-3.54
		c0.365-1.368,0.721-2.571,1.065-3.609h-0.002c0.335-1.017,0.66-1.856,0.968-2.512v-0.002c0.316-0.666,0.661-1.237,1.029-1.711
		c0.382-0.488,0.794-0.881,1.235-1.178l0.002-0.002c0.375-0.248,0.845-0.453,1.403-0.616c0.537-0.154,1.166-0.274,1.879-0.354
		c0.688-0.077,1.653-0.135,2.887-0.173c1.262-0.04,2.74-0.057,4.437-0.057c1.718,0,3.248,0.021,4.591,0.065
		c1.315,0.041,2.395,0.106,3.237,0.193h0.002l0.448,0.048l0.01,0.002l0.41,0.053l0.465,0.058l-0.053,0.464
		c-0.026,0.234-0.077,0.547-0.149,0.937c-0.037,0.201-0.082,0.424-0.135,0.671h2.259h0.541l-0.072,0.534
		c-0.033,0.247-0.081,0.553-0.15,0.91c-0.033,0.176-0.072,0.37-0.118,0.585h10.162l0.255-0.895l0.159-0.567
		c0.395-1.477,0.658-2.771,0.791-3.88c0.13-1.086,0.133-1.991,0.01-2.715h-0.001c-0.123-0.697-0.374-1.31-0.756-1.832
		c-0.383-0.52-0.901-0.962-1.555-1.318v0.002l-0.255-0.127v-0.002l-0.248-0.113l-0.134-0.06l-0.078-0.127
		c-0.194-0.321-0.438-0.618-0.73-0.886c-0.293-0.271-0.636-0.513-1.03-0.724l0.002-0.002c-0.517-0.27-1.157-0.503-1.918-0.695
		c-0.776-0.195-1.673-0.347-2.689-0.454c-1.038-0.104-2.406-0.184-4.093-0.237c-1.64-0.05-3.65-0.077-6.03-0.077
		c-4.704,0-8.628,0.087-11.768,0.256c-3.145,0.169-5.531,0.426-7.151,0.763c-1.589,0.329-2.975,0.857-4.158,1.579
		c-1.174,0.715-2.152,1.629-2.93,2.732l-0.005,0.003c-0.352,0.491-0.702,1.088-1.037,1.788c-0.345,0.705-0.676,1.52-1.003,2.441
		h-0.001c-0.326,0.931-0.714,2.166-1.167,3.701c-0.438,1.488-0.939,3.288-1.505,5.396c-0.585,2.183-1.053,4-1.403,5.453
		c-0.357,1.484-0.611,2.647-0.757,3.485h-0.002c-0.169,1.002-0.255,1.89-0.257,2.662c0,0.758,0.077,1.41,0.235,1.956
		c0.154,0.525,0.4,1.001,0.734,1.421c0.336,0.423,0.771,0.795,1.296,1.113h-0.002c0.088,0.052,0.198,0.112,0.321,0.174
		c0.113,0.058,0.233,0.115,0.356,0.168l0.138,0.06l0.075,0.123c0.183,0.296,0.406,0.568,0.663,0.817
		c0.262,0.251,0.565,0.481,0.903,0.687l0.001-0.002c0.606,0.36,1.411,0.665,2.409,0.912c1.018,0.253,2.234,0.445,3.64,0.574
		c1.435,0.132,3.384,0.232,5.838,0.299c2.392,0.065,5.341,0.098,8.844,0.098c3.305,0,6.134-0.079,8.478-0.238
		c2.345-0.159,4.222-0.397,5.625-0.714h0.002c1.379-0.308,2.583-0.754,3.609-1.338c1.01-0.573,1.846-1.282,2.506-2.125h0.003
		c0.609-0.763,1.159-1.676,1.646-2.739c0.491-1.071,0.924-2.301,1.295-3.687c0.069-0.26,0.17-0.674,0.305-1.239h0.003l0.376-1.611
		h-2.34h-0.597l0.137-0.581L122.333,41.634z M79.064,29.856h-28.51l-0.614,2.291h24.318h0.617l-0.159,0.597l-0.385,1.434h2.388
		h0.617l-0.159,0.596l-2.147,8.01l-0.095,0.353h-0.363H46.994l-0.769,2.866h26.026h0.617l-0.162,0.597l-0.384,1.432h2.261
		c0.041-0.587,0.12-1.221,0.235-1.896v-0.005c0.145-0.828,0.403-2.014,0.774-3.545c0.368-1.529,0.837-3.355,1.404-5.475
		c0.557-2.072,1.062-3.88,1.515-5.418C78.703,31.025,78.889,30.412,79.064,29.856z M81.304,21.288h-2.388h-0.617l0.161-0.596
		l0.385-1.435H39.439l-9.513,35.502h2.388h0.617l-0.161,0.595l-0.384,1.435h39.614l2.094-7.812h-2.389h-0.617l0.16-0.595
		l0.384-1.434H45.609h-0.616l0.161-0.597l1.02-3.813l0.095-0.351h0.361h27.579l1.891-7.064h-2.386h-0.617l0.159-0.594l0.385-1.435
		h-24.32h-0.616l0.161-0.595l0.867-3.238l0.093-0.351h0.364h29.07L81.304,21.288z M79.534,20.341h2.386h0.621l-0.162,0.596
		l-0.782,2.926c0.083-0.134,0.17-0.26,0.26-0.382h-0.002c0.854-1.209,1.925-2.21,3.212-2.994c1.276-0.78,2.763-1.346,4.456-1.699
		c1.664-0.346,4.1-0.609,7.297-0.78c3.195-0.173,7.136-0.261,11.816-0.261c2.299,0,4.32,0.029,6.058,0.082h0.001
		c1.723,0.056,3.11,0.136,4.159,0.241h0.002c1.064,0.111,2.007,0.27,2.822,0.475c0.829,0.209,1.539,0.471,2.131,0.781l0.006,0.002
		c0.461,0.248,0.869,0.537,1.218,0.859c0.316,0.29,0.586,0.614,0.819,0.967l0.137,0.061l0.017,0.008l0.255,0.126l0.014,0.008
		c0.787,0.425,1.415,0.96,1.883,1.598c0.469,0.641,0.777,1.387,0.925,2.229v0.002c0.137,0.814,0.137,1.81-0.001,2.985
		c-0.138,1.154-0.412,2.491-0.818,4.013l-0.003,0.002l-0.161,0.574v0.003l-0.354,1.24l-0.096,0.345h-0.356h-11.104H115.6
		l0.127-0.576c0.094-0.412,0.171-0.793,0.236-1.13l0.058-0.322h-2.295h-0.587l0.128-0.576c0.101-0.458,0.186-0.864,0.251-1.213
		v-0.002l0.072-0.409l-0.374-0.042c-0.835-0.084-1.892-0.148-3.167-0.19c-1.253-0.038-2.774-0.061-4.565-0.061
		c-1.776,0-3.245,0.019-4.41,0.055h-0.002c-1.186,0.036-2.124,0.094-2.808,0.169c-0.666,0.074-1.242,0.181-1.723,0.32
		c-0.464,0.135-0.847,0.301-1.144,0.498v-0.002c-0.355,0.239-0.693,0.564-1.011,0.972c-0.327,0.426-0.635,0.936-0.92,1.535h-0.002
		c-0.286,0.609-0.592,1.413-0.922,2.408H92.54c-0.325,0.976-0.672,2.161-1.046,3.556c-0.368,1.372-0.65,2.536-0.85,3.488
		c-0.198,0.955-0.317,1.709-0.354,2.253c-0.012,0.216-0.015,0.418-0.006,0.602l0.013,0.2l0.082,0.014h0.002
		c0.128,0.021,0.274,0.042,0.431,0.061c0.665,0.077,1.587,0.138,2.766,0.176c1.146,0.038,2.595,0.057,4.344,0.057
		c2.163,0,3.928-0.017,5.29-0.05c1.427-0.034,2.505-0.087,3.227-0.155c0.691-0.069,1.287-0.178,1.781-0.329
		c0.465-0.137,0.835-0.31,1.101-0.516l0.002-0.002c0.352-0.265,0.698-0.732,1.033-1.391c0.354-0.699,0.69-1.606,1.006-2.715
		l0.096-0.347h0.357h11.113h0.597l-0.137,0.58l-0.34,1.451h2.339h0.498l6.445-24.054l0.096-0.351h0.363h11.667h0.617l-0.16,0.595
		l-0.384,1.434h2.388h0.617l-0.159,0.596l-2.789,10.407h21.102l3.4-12.681l0.095-0.351h0.363h11.668h0.617l-0.162,0.595
		l-0.384,1.434h2.388h0.617l-0.158,0.596l-9.77,36.448l-0.093,0.351h-0.364h-11.669h-0.616l0.159-0.594l0.386-1.435h-2.389h-0.617
		l0.161-0.597l2.836-10.588h-21.103l-3.445,12.864l-0.094,0.351h-0.364h-11.667h-0.616l0.158-0.594l0.384-1.435h-2.388h-0.617
		l0.162-0.597l1.374-5.131c-0.087,0.209-0.177,0.415-0.271,0.614c-0.518,1.134-1.107,2.113-1.76,2.933v0.002
		c-0.735,0.934-1.664,1.724-2.785,2.358c-1.103,0.628-2.395,1.108-3.869,1.437c-1.458,0.33-3.383,0.576-5.769,0.737
		c-2.391,0.161-5.238,0.241-8.54,0.241c-3.405,0-6.366-0.034-8.868-0.101h-0.001c-2.48-0.069-4.45-0.169-5.897-0.302
		c-1.461-0.136-2.723-0.335-3.783-0.597c-1.092-0.271-1.98-0.613-2.664-1.016l-0.003-0.005c-0.403-0.243-0.763-0.517-1.074-0.815
		c-0.281-0.271-0.527-0.562-0.734-0.874l-0.274-0.131h-0.002c-0.118-0.059-0.243-0.127-0.373-0.205l-0.005-0.002
		c-0.62-0.376-1.139-0.823-1.547-1.335c-0.41-0.515-0.713-1.098-0.9-1.745c-0.063-0.214-0.113-0.44-0.154-0.679l-1.847,6.892
		l-0.094,0.351h-0.363H31.771h-0.616l0.158-0.594l0.385-1.435H29.31h-0.617l0.161-0.597l9.767-36.446l0.096-0.351h0.363h40.383
		h0.617l-0.161,0.595L79.534,20.341z"/>
	<path fill-rule="evenodd" clip-rule="evenodd" fill="#004F9E" d="M4.871,2.175h290.695l-2.903,10.834H34.489L23.02,55.798h-13.6
		l11.468-42.79H1.969L4.871,2.175z M264.057,27.726c-5.889,0-9.477,0.154-10.751,0.457c-1.463,0.356-2.578,1.148-3.338,2.387
		c-0.761,1.24-1.63,3.701-2.619,7.392c-0.595,2.224-0.909,3.837-0.949,4.831c-0.049,1.849,1.006,2.915,3.177,3.18
		c1.602,0.21,4.783,0.32,9.559,0.32c4.468,0,7.459-0.083,8.978-0.239c1.52-0.163,2.711-0.519,3.571-1.075
		c0.779-0.493,1.413-1.23,1.901-2.197c0.489-0.975,1.034-2.561,1.626-4.776c0.702-2.614,1.126-4.538,1.283-5.768
		c0.144-1.221,0.074-2.151-0.225-2.771c-0.373-0.784-1.216-1.276-2.516-1.459C272.456,27.816,269.217,27.726,264.057,27.726z
		 M266.57,18.249c7.867,0,13.23,0.19,16.079,0.581c4.102,0.576,6.167,2.597,6.203,6.07c0.02,2.381-0.735,6.418-2.255,12.095
		c-1.528,5.697-2.941,9.743-4.234,12.122c-1.896,3.473-5.048,5.495-9.456,6.069c-3.059,0.393-8.489,0.585-16.284,0.585
		c-7.94,0-13.34-0.192-16.189-0.585c-4.102-0.574-6.167-2.596-6.203-6.069c-0.018-2.379,0.757-6.499,2.32-12.333
		c1.489-5.559,2.88-9.523,4.17-11.885c1.895-3.473,5.044-5.494,9.457-6.07C253.218,18.439,258.685,18.249,266.57,18.249z
		 M186.307,18.785h19.472l11.814,27.179h1.148l7.018-27.179h11.296l-9.767,36.448h-19.308l-11.897-27.178h-1.203l-7.047,27.178
		h-11.294L186.307,18.785z M132.786,18.785h11.67l-3.495,13.034h25.089l3.492-13.034h11.669l-9.768,36.448h-11.669l3.542-13.215
		h-25.087l-3.542,13.215h-11.667L132.786,18.785z M111.812,41.159h11.111c-0.411,1.777-0.683,2.927-0.821,3.447
		c-0.754,2.815-1.762,5.011-3.027,6.597c-1.396,1.778-3.527,2.991-6.387,3.627c-2.861,0.648-7.596,0.968-14.205,0.968
		c-6.937,0-11.851-0.137-14.725-0.402c-2.874-0.265-4.958-0.784-6.248-1.55c-1.145-0.693-1.895-1.63-2.237-2.806
		c-0.341-1.175-0.339-2.78,0.009-4.831c0.29-1.658,1.009-4.648,2.17-8.978c1.131-4.219,2.029-7.263,2.684-9.131
		c0.665-1.869,1.363-3.318,2.104-4.347c1.632-2.316,4.095-3.821,7.379-4.503c3.283-0.683,9.619-1.03,19.017-1.03
		c4.705,0,8.093,0.108,10.172,0.318c2.083,0.219,3.67,0.619,4.781,1.205c1.449,0.783,2.295,1.95,2.565,3.49
		c0.262,1.54-0.006,3.8-0.811,6.8c-0.04,0.154-0.213,0.765-0.512,1.813h-11.103c0.269-1.212,0.404-2.022,0.424-2.433
		c0.01-0.41-0.102-0.748-0.328-1.022c-0.33-0.372-1.331-0.648-3.02-0.811c-1.677-0.173-4.269-0.255-7.781-0.255
		c-3.474,0-5.898,0.073-7.271,0.228c-1.382,0.155-2.4,0.446-3.075,0.894c-0.8,0.537-1.495,1.429-2.099,2.696
		c-0.594,1.267-1.263,3.281-2.003,6.043c-0.738,2.754-1.141,4.703-1.217,5.834c-0.076,1.129,0.154,1.941,0.686,2.442
		c0.489,0.484,1.398,0.802,2.712,0.964c1.327,0.154,3.71,0.239,7.168,0.239c4.247,0,7.111-0.073,8.561-0.21
		c1.45-0.146,2.49-0.457,3.121-0.938C110.428,44.897,111.166,43.44,111.812,41.159z M39.075,18.785h40.384l-2.295,8.568H47.727
		l-1.412,5.268h27.939l-2.147,8.011H44.169l-1.565,5.842h29.644L69.9,55.233H29.308L39.075,18.785z"/>
	<path fill-rule="evenodd" clip-rule="evenodd" fill="#FFFFFF" d="M282.369,9.083h2.732l-0.632,2.358h-2.732L282.369,9.083z
		 M277.655,6.756c-0.75,0-1.274,0.061-1.568,0.183c-0.217,0.091-0.391,0.243-0.528,0.455c-0.137,0.213-0.262,0.525-0.372,0.941
		c-0.11,0.411-0.154,0.707-0.137,0.884c0.019,0.177,0.111,0.31,0.275,0.401c0.248,0.14,0.75,0.208,1.501,0.208
		c0.858,0,1.433-0.094,1.723-0.279c0.289-0.186,0.523-0.61,0.7-1.274c0.111-0.415,0.154-0.718,0.131-0.909
		c-0.024-0.19-0.121-0.329-0.296-0.415C278.832,6.821,278.357,6.756,277.655,6.756z M278.113,4.983c1.028,0,1.788,0.041,2.277,0.126
		c0.489,0.083,0.848,0.233,1.077,0.452c0.24,0.224,0.366,0.519,0.376,0.881c0.012,0.364-0.089,0.942-0.301,1.728
		c-0.158,0.586-0.29,1.026-0.399,1.315c-0.111,0.294-0.238,0.558-0.385,0.79c-0.375,0.591-0.915,0.965-1.622,1.124
		c-0.588,0.137-1.517,0.202-2.794,0.202c-1.131,0-1.928-0.041-2.395-0.127c-0.462-0.083-0.809-0.252-1.033-0.502
		c-0.217-0.239-0.32-0.551-0.31-0.936c0.01-0.387,0.137-1.037,0.382-1.952c0.138-0.519,0.264-0.913,0.376-1.184
		c0.112-0.271,0.255-0.519,0.429-0.745c0.351-0.459,0.823-0.767,1.413-0.929C275.796,5.069,276.764,4.987,278.113,4.983z
		 M268.917,9.083h2.735l-0.633,2.358h-2.733L268.917,9.083z M263.499,5.144h2.132l-0.253,0.95h0.113
		c0.321-0.405,0.683-0.69,1.083-0.858c0.403-0.169,0.922-0.252,1.561-0.252c0.912,0,1.499,0.185,1.758,0.559
		c0.259,0.372,0.261,1.032,0.008,1.982c-0.015,0.055-0.058,0.195-0.123,0.421h-2.136c0.098-0.367,0.13-0.626,0.095-0.773
		c-0.071-0.278-0.395-0.416-0.971-0.416c-0.536,0-0.959,0.152-1.266,0.455c-0.153,0.152-0.281,0.341-0.377,0.563
		c-0.103,0.223-0.216,0.577-0.345,1.056l-0.699,2.611h-2.266L263.499,5.144z M249.939,9.44h2.307
		c-0.051,0.27,0.046,0.454,0.287,0.554c0.238,0.099,0.712,0.149,1.422,0.149c0.732,0,1.244-0.044,1.531-0.125
		c0.286-0.082,0.46-0.236,0.521-0.46c0.058-0.217-0.033-0.361-0.267-0.438c-0.106-0.033-0.744-0.056-1.912-0.07
		c-1.093,0-1.76-0.021-2.005-0.057c-0.681-0.1-1.096-0.342-1.245-0.722c-0.111-0.286-0.103-0.672,0.028-1.157
		c0.249-0.927,0.74-1.532,1.474-1.813c0.554-0.212,1.647-0.318,3.284-0.318c1.028,0,1.769,0.038,2.214,0.119
		c0.445,0.08,0.768,0.232,0.965,0.46c0.123,0.137,0.193,0.303,0.207,0.5c0.017,0.195-0.012,0.482-0.083,0.864h-2.308
		c-0.002-0.156-0.027-0.256-0.076-0.299c-0.154-0.122-0.616-0.183-1.379-0.183c-0.708,0-1.203,0.037-1.486,0.112
		c-0.281,0.072-0.449,0.208-0.501,0.401c-0.069,0.258,0.073,0.397,0.432,0.423c0.276,0.024,1.303,0.039,3.074,0.053
		c0.85,0.004,1.424,0.156,1.726,0.447c0.304,0.292,0.362,0.796,0.169,1.516c-0.128,0.477-0.307,0.862-0.536,1.16
		c-0.231,0.296-0.525,0.52-0.885,0.665c-0.602,0.256-1.767,0.384-3.493,0.384c-1.107,0-1.888-0.045-2.343-0.132
		c-0.455-0.089-0.787-0.265-0.992-0.524C249.811,10.627,249.768,10.124,249.939,9.44z M243.053,9.083h2.734l-0.632,2.358h-2.733
		L243.053,9.083z M241.294,2.57h2.266l-2.377,8.871h-2.268L241.294,2.57z M235.049,6.756c-0.751,0-1.275,0.061-1.57,0.183
		c-0.217,0.091-0.392,0.243-0.526,0.455c-0.138,0.213-0.263,0.525-0.374,0.941c-0.111,0.411-0.154,0.707-0.135,0.884
		c0.018,0.177,0.11,0.31,0.272,0.401c0.25,0.14,0.75,0.208,1.503,0.208c0.858,0,1.432-0.094,1.723-0.279
		c0.289-0.186,0.523-0.61,0.7-1.274c0.111-0.415,0.155-0.718,0.131-0.909c-0.025-0.19-0.122-0.329-0.294-0.415
		C236.226,6.821,235.75,6.756,235.049,6.756z M235.504,4.983c1.03,0,1.79,0.041,2.28,0.126c0.488,0.083,0.846,0.233,1.076,0.452
		c0.239,0.224,0.365,0.519,0.376,0.881c0.012,0.364-0.089,0.942-0.301,1.728c-0.156,0.586-0.288,1.026-0.399,1.315
		c-0.111,0.294-0.238,0.558-0.385,0.79c-0.373,0.591-0.915,0.965-1.622,1.124c-0.587,0.137-1.517,0.202-2.793,0.202
		c-1.131,0-1.928-0.041-2.394-0.127c-0.465-0.083-0.81-0.252-1.037-0.502c-0.214-0.239-0.318-0.551-0.308-0.936
		c0.009-0.387,0.137-1.037,0.383-1.952c0.138-0.519,0.263-0.913,0.376-1.184c0.11-0.271,0.254-0.519,0.428-0.745
		c0.351-0.459,0.823-0.767,1.412-0.929C233.188,5.069,234.157,4.987,235.504,4.983z M225.857,6.756
		c-0.951,0-1.562,0.099-1.837,0.301c-0.274,0.196-0.501,0.633-0.682,1.304c-0.096,0.36-0.137,0.633-0.125,0.816
		c0.014,0.183,0.085,0.321,0.215,0.412c0.22,0.159,0.732,0.239,1.536,0.239c0.833,0,1.4-0.086,1.696-0.259
		c0.168-0.1,0.305-0.248,0.41-0.446c0.105-0.198,0.214-0.506,0.326-0.925c0.104-0.387,0.146-0.664,0.13-0.831
		c-0.018-0.17-0.101-0.3-0.251-0.396C227.055,6.831,226.581,6.761,225.857,6.756z M219.545,14.061l2.389-8.917h2.134l-0.228,0.852
		h0.127c0.297-0.39,0.66-0.656,1.093-0.799c0.431-0.145,1.085-0.214,1.957-0.214c0.779,0,1.376,0.052,1.791,0.159
		c0.412,0.105,0.715,0.281,0.907,0.529c0.18,0.229,0.265,0.528,0.253,0.898c-0.012,0.371-0.123,0.955-0.337,1.753
		c-0.143,0.534-0.273,0.947-0.393,1.248c-0.121,0.299-0.263,0.573-0.43,0.818c-0.311,0.459-0.732,0.777-1.264,0.951
		c-0.53,0.176-1.331,0.264-2.402,0.264c-0.771,0-1.318-0.069-1.641-0.204c-0.322-0.137-0.544-0.392-0.664-0.77h-0.105l-0.921,3.432
		H219.545z M211.579,9.44h2.309c-0.05,0.27,0.045,0.454,0.286,0.554c0.238,0.099,0.713,0.149,1.424,0.149
		c0.731,0,1.244-0.044,1.528-0.125c0.287-0.082,0.462-0.236,0.521-0.46c0.058-0.217-0.031-0.361-0.265-0.438
		c-0.106-0.033-0.745-0.056-1.912-0.07c-1.095,0-1.761-0.021-2.005-0.057c-0.683-0.1-1.098-0.342-1.247-0.722
		c-0.11-0.286-0.101-0.672,0.03-1.157c0.248-0.927,0.739-1.532,1.474-1.813c0.551-0.212,1.645-0.318,3.281-0.318
		c1.03,0,1.769,0.038,2.215,0.119c0.443,0.08,0.766,0.232,0.964,0.46c0.123,0.137,0.192,0.303,0.207,0.5
		c0.016,0.195-0.012,0.482-0.084,0.864h-2.309c-0.002-0.156-0.027-0.256-0.075-0.299c-0.155-0.122-0.616-0.183-1.378-0.183
		c-0.708,0-1.203,0.037-1.487,0.112c-0.282,0.072-0.45,0.208-0.503,0.401c-0.067,0.258,0.076,0.397,0.431,0.423
		c0.28,0.024,1.305,0.039,3.078,0.053c0.848,0.004,1.424,0.156,1.724,0.447c0.305,0.292,0.362,0.796,0.169,1.516
		c-0.128,0.477-0.306,0.862-0.535,1.16c-0.232,0.296-0.526,0.52-0.886,0.665c-0.601,0.256-1.767,0.384-3.493,0.384
		c-1.107,0-1.886-0.045-2.341-0.132c-0.457-0.089-0.787-0.265-0.994-0.524C211.451,10.627,211.408,10.124,211.579,9.44z
		 M200.476,5.144h2.576l0.686,4.472l3.067-4.472h2.572l-4.675,6.297h-2.925L200.476,5.144z M195.725,6.756
		c-0.751,0-1.274,0.061-1.568,0.183c-0.217,0.091-0.391,0.243-0.528,0.455c-0.137,0.213-0.26,0.525-0.372,0.941
		c-0.111,0.411-0.155,0.707-0.137,0.884c0.019,0.177,0.111,0.31,0.275,0.401c0.248,0.14,0.75,0.208,1.501,0.208
		c0.859,0,1.431-0.094,1.724-0.279c0.289-0.186,0.521-0.61,0.698-1.274c0.113-0.415,0.155-0.718,0.131-0.909
		c-0.022-0.19-0.121-0.329-0.294-0.415C196.902,6.821,196.427,6.756,195.725,6.756z M196.182,4.983c1.03,0,1.79,0.041,2.279,0.126
		c0.488,0.083,0.847,0.233,1.077,0.452c0.239,0.224,0.366,0.519,0.378,0.881c0.009,0.364-0.091,0.942-0.304,1.728
		c-0.156,0.586-0.288,1.026-0.399,1.315c-0.11,0.294-0.236,0.558-0.383,0.79c-0.374,0.591-0.915,0.965-1.622,1.124
		c-0.586,0.137-1.517,0.202-2.795,0.202c-1.128,0-1.929-0.041-2.394-0.127c-0.464-0.083-0.809-0.252-1.033-0.502
		c-0.217-0.239-0.319-0.551-0.31-0.936c0.01-0.387,0.135-1.037,0.382-1.952c0.138-0.519,0.263-0.913,0.376-1.184
		c0.112-0.271,0.255-0.519,0.429-0.745c0.351-0.459,0.823-0.767,1.413-0.929C193.865,5.069,194.834,4.987,196.182,4.983z
		 M184.333,2.57h2.266l-1.244,4.639h0.491l2.629-2.065h3.04l-3.936,2.943l2.662,3.354h-3.004l-1.762-2.521h-0.577l-0.677,2.521
		h-2.265L184.333,2.57z M182.345,2.513l-3.53,1.923l-2.5-1.923l0.559-0.778l2.404,0.979l2.926-0.979L182.345,2.513z M173.287,9.44
		h2.309c-0.05,0.27,0.045,0.454,0.287,0.554c0.238,0.099,0.714,0.149,1.422,0.149c0.735,0,1.244-0.044,1.532-0.125
		c0.286-0.082,0.458-0.236,0.519-0.46c0.058-0.217-0.031-0.361-0.264-0.438c-0.107-0.033-0.744-0.056-1.913-0.07
		c-1.092,0-1.758-0.021-2.003-0.057c-0.682-0.1-1.099-0.342-1.245-0.722c-0.112-0.286-0.102-0.672,0.026-1.157
		c0.248-0.927,0.739-1.532,1.476-1.813c0.553-0.212,1.647-0.318,3.283-0.318c1.028,0,1.768,0.038,2.214,0.119
		c0.446,0.08,0.768,0.232,0.964,0.46c0.123,0.137,0.192,0.303,0.208,0.5c0.016,0.195-0.013,0.482-0.085,0.864h-2.307
		c-0.001-0.156-0.026-0.256-0.076-0.299c-0.156-0.122-0.616-0.183-1.379-0.183c-0.708,0-1.204,0.037-1.486,0.112
		c-0.281,0.072-0.451,0.208-0.503,0.401c-0.068,0.258,0.075,0.397,0.431,0.423c0.279,0.024,1.303,0.039,3.077,0.053
		c0.849,0.004,1.423,0.156,1.726,0.447c0.303,0.292,0.361,0.796,0.168,1.516c-0.128,0.477-0.306,0.862-0.536,1.16
		c-0.232,0.296-0.525,0.52-0.885,0.665c-0.603,0.256-1.77,0.384-3.495,0.384c-1.107,0-1.886-0.045-2.341-0.132
		c-0.457-0.089-0.788-0.265-0.995-0.524C173.159,10.627,173.117,10.124,173.287,9.44z M165.638,5.144h2.489l0.498,4.577l3.157-4.577
		h2.505l-5.131,7.111c-0.498,0.687-0.816,1.108-0.956,1.264c-0.138,0.152-0.323,0.291-0.549,0.419
		c-0.409,0.223-0.987,0.336-1.74,0.336c-0.487,0-0.811-0.012-0.968-0.032l0.436-1.626c0.092-0.005,0.262-0.007,0.508-0.007
		c0.382,0.006,0.683-0.069,0.898-0.219c0.216-0.153,0.476-0.469,0.785-0.951h-0.921L165.638,5.144z M154.394,2.57h2.861l1.334,6.641
		h0.486l4.868-6.641h2.84l-6.544,8.871h-4L154.394,2.57z"/>
</g>
</svg>
